solid OpenSCAD_Model
  facet normal 0 0.748471 0.663167
    outer loop
      vertex 285.58 131.859 19.8712
      vertex 150 61.2185 99.5983
      vertex 285.58 61.2185 99.5983
    endloop
  endfacet
  facet normal 0 0.748471 0.663167
    outer loop
      vertex 150 61.2185 99.5983
      vertex 285.58 131.859 19.8712
      vertex 150 131.859 19.8712
    endloop
  endfacet
  facet normal 0 -0.662315 0.749225
    outer loop
      vertex 150 132.159 20.1364
      vertex 285.58 131.859 19.8712
      vertex 285.58 132.159 20.1364
    endloop
  endfacet
  facet normal 0 -0.662315 0.749225
    outer loop
      vertex 285.58 131.859 19.8712
      vertex 150 132.159 20.1364
      vertex 150 131.859 19.8712
    endloop
  endfacet
  facet normal 0 0.663199 -0.748443
    outer loop
      vertex 150 61.2185 99.5983
      vertex 285.58 61.5179 99.8636
      vertex 285.58 61.2185 99.5983
    endloop
  endfacet
  facet normal 0 0.663199 -0.748443
    outer loop
      vertex 285.58 61.5179 99.8636
      vertex 150 61.2185 99.5983
      vertex 150 61.5179 99.8636
    endloop
  endfacet
  facet normal -1 0 0
    outer loop
      vertex 285.58 131.859 19.8712
      vertex 285.58 61.5179 99.8636
      vertex 285.58 132.159 20.1364
    endloop
  endfacet
  facet normal -1 0 -0
    outer loop
      vertex 285.58 61.5179 99.8636
      vertex 285.58 131.859 19.8712
      vertex 285.58 61.2185 99.5983
    endloop
  endfacet
  facet normal 0 0.748472 0.663167
    outer loop
      vertex 173 138.591 12.8763
      vertex 150 134.159 17.8784
      vertex 173 134.159 17.8784
    endloop
  endfacet
  facet normal 0 0.748472 0.663167
    outer loop
      vertex 150 134.159 17.8784
      vertex 173 138.591 12.8763
      vertex 150 138.591 12.8763
    endloop
  endfacet
  facet normal 0 0 -1
    outer loop
      vertex 300 0 0
      vertex 295.8 4.2 0
      vertex 300 150 0
    endloop
  endfacet
  facet normal 0 0 -1
    outer loop
      vertex 150 0 0
      vertex 295.8 4.2 0
      vertex 300 0 0
    endloop
  endfacet
  facet normal -0 0 -1
    outer loop
      vertex 295.8 4.2 0
      vertex 150 0 0
      vertex 150 4.2 0
    endloop
  endfacet
  facet normal 0 0 -1
    outer loop
      vertex 295.8 145.8 0
      vertex 300 150 0
      vertex 295.8 4.2 0
    endloop
  endfacet
  facet normal 0 0 -1
    outer loop
      vertex 150 150 0
      vertex 295.8 145.8 0
      vertex 150 145.8 0
    endloop
  endfacet
  facet normal 0 0 -1
    outer loop
      vertex 295.8 145.8 0
      vertex 150 150 0
      vertex 300 150 0
    endloop
  endfacet
  facet normal 1 0 0
    outer loop
      vertex 300 43.6764 120
      vertex 300 0 0
      vertex 300 150 0
    endloop
  endfacet
  facet normal 0 0.74847 0.663169
    outer loop
      vertex 300 43.6764 120
      vertex 285.58 61.5179 99.8636
      vertex 150 43.6764 120
    endloop
  endfacet
  facet normal -2.99946e-06 0.748469 0.66317
    outer loop
      vertex 300 43.6764 120
      vertex 285.58 132.159 20.1364
      vertex 285.58 61.5179 99.8636
    endloop
  endfacet
  facet normal 0 0.748579 0.663046
    outer loop
      vertex 285.58 132.159 20.1364
      vertex 173 134.159 17.8784
      vertex 150 132.159 20.1364
    endloop
  endfacet
  facet normal -4.32759e-06 0.748472 0.663167
    outer loop
      vertex 285.58 132.159 20.1364
      vertex 173 138.591 12.8763
      vertex 173 134.159 17.8784
    endloop
  endfacet
  facet normal 2.35904e-05 0.748471 0.663168
    outer loop
      vertex 300 150 0
      vertex 285.58 132.159 20.1364
      vertex 300 43.6764 120
    endloop
  endfacet
  facet normal -3.1936e-06 0.74848 0.663157
    outer loop
      vertex 300 150 0
      vertex 173 138.591 12.8763
      vertex 285.58 132.159 20.1364
    endloop
  endfacet
  facet normal -0 0.748465 0.663175
    outer loop
      vertex 150 150 0
      vertex 173 138.591 12.8763
      vertex 300 150 0
    endloop
  endfacet
  facet normal 0 0.748465 0.663175
    outer loop
      vertex 173 138.591 12.8763
      vertex 150 150 0
      vertex 150 138.591 12.8763
    endloop
  endfacet
  facet normal 0 0.74847 0.663169
    outer loop
      vertex 150 43.6764 120
      vertex 285.58 61.5179 99.8636
      vertex 150 61.5179 99.8636
    endloop
  endfacet
  facet normal 0 0.748579 0.663046
    outer loop
      vertex 150 132.159 20.1364
      vertex 173 134.159 17.8784
      vertex 150 134.159 17.8784
    endloop
  endfacet
  facet normal 0 -0.939693 0.34202
    outer loop
      vertex 150 0 0
      vertex 300 43.6764 120
      vertex 150 43.6764 120
    endloop
  endfacet
  facet normal 0 -0.939693 0.34202
    outer loop
      vertex 300 43.6764 120
      vertex 150 0 0
      vertex 300 0 0
    endloop
  endfacet
  facet normal -0 0 1
    outer loop
      vertex 150 142.889 3.2
      vertex 296.8 4.57007 3.2
      vertex 296.8 142.889 3.2
    endloop
  endfacet
  facet normal 0 0 1
    outer loop
      vertex 296.8 4.57007 3.2
      vertex 150 142.889 3.2
      vertex 150 4.57007 3.2
    endloop
  endfacet
  facet normal -1 0 -0
    outer loop
      vertex 296.8 44.8453 113.855
      vertex 296.8 142.889 3.2
      vertex 296.8 4.57007 3.2
    endloop
  endfacet
  facet normal 0 -0.748471 -0.663168
    outer loop
      vertex 150 142.889 3.2
      vertex 296.8 44.8453 113.855
      vertex 150 44.8453 113.855
    endloop
  endfacet
  facet normal 0 -0.748471 -0.663168
    outer loop
      vertex 296.8 44.8453 113.855
      vertex 150 142.889 3.2
      vertex 296.8 142.889 3.2
    endloop
  endfacet
  facet normal 0 0.939692 -0.342021
    outer loop
      vertex 296.8 4.57007 3.2
      vertex 150 44.8453 113.855
      vertex 296.8 44.8453 113.855
    endloop
  endfacet
  facet normal 0 0.939692 -0.342021
    outer loop
      vertex 150 44.8453 113.855
      vertex 296.8 4.57007 3.2
      vertex 150 4.57007 3.2
    endloop
  endfacet
  facet normal -1 0 0
    outer loop
      vertex 295.8 4.2 0
      vertex 295.8 145.8 3
      vertex 295.8 145.8 0
    endloop
  endfacet
  facet normal -1 -0 0
    outer loop
      vertex 295.8 145.8 3
      vertex 295.8 4.2 0
      vertex 295.8 4.2 3
    endloop
  endfacet
  facet normal 0 0 -1
    outer loop
      vertex 150 4.2 3
      vertex 295.8 145.8 3
      vertex 295.8 4.2 3
    endloop
  endfacet
  facet normal -0 0 -1
    outer loop
      vertex 295.8 145.8 3
      vertex 150 4.2 3
      vertex 150 145.8 3
    endloop
  endfacet
  facet normal 0 -1 0
    outer loop
      vertex 150 145.8 0
      vertex 295.8 145.8 3
      vertex 150 145.8 3
    endloop
  endfacet
  facet normal 0 -1 -0
    outer loop
      vertex 295.8 145.8 3
      vertex 150 145.8 0
      vertex 295.8 145.8 0
    endloop
  endfacet
  facet normal 0 1 -0
    outer loop
      vertex 295.8 4.2 0
      vertex 150 4.2 3
      vertex 295.8 4.2 3
    endloop
  endfacet
  facet normal 0 1 0
    outer loop
      vertex 150 4.2 3
      vertex 295.8 4.2 0
      vertex 150 4.2 0
    endloop
  endfacet
  facet normal -1 0 0
    outer loop
      vertex 150 4.2 0
      vertex 150 0 0
      vertex 150 4.2 3
    endloop
  endfacet
  facet normal -1 0 0
    outer loop
      vertex 150 4.2 3
      vertex 150 142.889 3.2
      vertex 150 145.8 3
    endloop
  endfacet
  facet normal -1 -0 0
    outer loop
      vertex 150 142.889 3.2
      vertex 150 4.2 3
      vertex 150 4.57007 3.2
    endloop
  endfacet
  facet normal -1 0 0
    outer loop
      vertex 150 145.8 3
      vertex 150 150 0
      vertex 150 145.8 0
    endloop
  endfacet
  facet normal -1 0 0
    outer loop
      vertex 150 145.8 3
      vertex 150 138.591 12.8763
      vertex 150 150 0
    endloop
  endfacet
  facet normal -1 0 0
    outer loop
      vertex 150 142.889 3.2
      vertex 150 138.591 12.8763
      vertex 150 145.8 3
    endloop
  endfacet
  facet normal -1 0 0
    outer loop
      vertex 150 142.889 3.2
      vertex 150 134.159 17.8784
      vertex 150 138.591 12.8763
    endloop
  endfacet
  facet normal -1 0 0
    outer loop
      vertex 150 131.859 19.8712
      vertex 150 134.159 17.8784
      vertex 150 142.889 3.2
    endloop
  endfacet
  facet normal -1 0 0
    outer loop
      vertex 150 134.159 17.8784
      vertex 150 131.859 19.8712
      vertex 150 132.159 20.1364
    endloop
  endfacet
  facet normal -1 0 0
    outer loop
      vertex 150 142.889 3.2
      vertex 150 61.2185 99.5983
      vertex 150 131.859 19.8712
    endloop
  endfacet
  facet normal -1 -0 -0
    outer loop
      vertex 150 61.2185 99.5983
      vertex 150 142.889 3.2
      vertex 150 44.8453 113.855
    endloop
  endfacet
  facet normal -1 0 0
    outer loop
      vertex 150 44.8453 113.855
      vertex 150 61.5179 99.8636
      vertex 150 61.2185 99.5983
    endloop
  endfacet
  facet normal -1 0 0
    outer loop
      vertex 150 44.8453 113.855
      vertex 150 43.6764 120
      vertex 150 61.5179 99.8636
    endloop
  endfacet
  facet normal -1 0 0
    outer loop
      vertex 150 4.2 3
      vertex 150 44.8453 113.855
      vertex 150 4.57007 3.2
    endloop
  endfacet
  facet normal -1 0 0
    outer loop
      vertex 150 0 0
      vertex 150 44.8453 113.855
      vertex 150 4.2 3
    endloop
  endfacet
  facet normal -1 -0 0
    outer loop
      vertex 150 44.8453 113.855
      vertex 150 0 0
      vertex 150 43.6764 120
    endloop
  endfacet
endsolid OpenSCAD_Model
