solid OpenSCAD_Model
  facet normal 0 0.748471 0.663167
    outer loop
      vertex 150 131.859 19.8712
      vertex 14.42 61.2185 99.5983
      vertex 150 61.2185 99.5983
    endloop
  endfacet
  facet normal 0 0.748471 0.663167
    outer loop
      vertex 14.42 61.2185 99.5983
      vertex 150 131.859 19.8712
      vertex 14.42 131.859 19.8712
    endloop
  endfacet
  facet normal 1 0 0
    outer loop
      vertex 14.42 61.5179 99.8636
      vertex 14.42 131.859 19.8712
      vertex 14.42 132.159 20.1364
    endloop
  endfacet
  facet normal 1 0 0
    outer loop
      vertex 14.42 131.859 19.8712
      vertex 14.42 61.5179 99.8636
      vertex 14.42 61.2185 99.5983
    endloop
  endfacet
  facet normal 0 -0.662315 0.749225
    outer loop
      vertex 14.42 132.159 20.1364
      vertex 150 131.859 19.8712
      vertex 150 132.159 20.1364
    endloop
  endfacet
  facet normal 0 -0.662315 0.749225
    outer loop
      vertex 150 131.859 19.8712
      vertex 14.42 132.159 20.1364
      vertex 14.42 131.859 19.8712
    endloop
  endfacet
  facet normal 0 0.663199 -0.748443
    outer loop
      vertex 14.42 61.2185 99.5983
      vertex 150 61.5179 99.8636
      vertex 150 61.2185 99.5983
    endloop
  endfacet
  facet normal 0 0.663199 -0.748443
    outer loop
      vertex 150 61.5179 99.8636
      vertex 14.42 61.2185 99.5983
      vertex 14.42 61.5179 99.8636
    endloop
  endfacet
  facet normal 0 0.748472 0.663167
    outer loop
      vertex 150 138.591 12.8763
      vertex 127 134.159 17.8784
      vertex 150 134.159 17.8784
    endloop
  endfacet
  facet normal 0 0.748472 0.663167
    outer loop
      vertex 127 134.159 17.8784
      vertex 150 138.591 12.8763
      vertex 127 138.591 12.8763
    endloop
  endfacet
  facet normal -0.997845 0.0434942 -0.0491292
    outer loop
      vertex 48.9743 134.586 12.5709
      vertex 48.9943 137.184 14.4647
      vertex 48.9974 134.819 12.308
    endloop
  endfacet
  facet normal -0.997865 0.0433139 -0.0488817
    outer loop
      vertex 48.9943 137.184 14.4647
      vertex 48.9743 134.586 12.5709
      vertex 48.9743 136.981 14.6931
    endloop
  endfacet
  facet normal -0.997939 0.0425555 -0.048028
    outer loop
      vertex 48.9974 134.819 12.308
      vertex 49 137.241 14.4
      vertex 49 134.846 12.2779
    endloop
  endfacet
  facet normal -0.997822 0.0437268 -0.0493843
    outer loop
      vertex 49 137.241 14.4
      vertex 48.9974 134.819 12.308
      vertex 48.9943 137.184 14.4647
    endloop
  endfacet
  facet normal 0.997865 0.0433139 -0.0488817
    outer loop
      vertex 43.0257 134.586 12.5709
      vertex 43.0057 137.184 14.4647
      vertex 43.0257 136.981 14.6931
    endloop
  endfacet
  facet normal 0.997845 0.0434942 -0.0491292
    outer loop
      vertex 43.0057 137.184 14.4647
      vertex 43.0257 134.586 12.5709
      vertex 43.0026 134.819 12.308
    endloop
  endfacet
  facet normal 0.0680411 0.661618 -0.746747
    outer loop
      vertex 45.6084 132.874 14.5041
      vertex 45.6948 135.265 16.6304
      vertex 45.6487 132.872 14.506
    endloop
  endfacet
  facet normal 0.0669358 0.661691 -0.746783
    outer loop
      vertex 45.6948 135.265 16.6304
      vertex 45.6084 132.874 14.5041
      vertex 45.6084 135.269 16.6262
    endloop
  endfacet
  facet normal -0.752247 0.436956 -0.493147
    outer loop
      vertex 48.1213 133.439 13.8656
      vertex 48.323 135.987 15.8156
      vertex 48.3534 133.615 13.6675
    endloop
  endfacet
  facet normal -0.75224 0.436961 -0.493154
    outer loop
      vertex 48.323 135.987 15.8156
      vertex 48.1213 133.439 13.8656
      vertex 48.1213 135.834 15.9877
    endloop
  endfacet
  facet normal -0.442091 -0.594851 0.671348
    outer loop
      vertex 47.148 136.684 10.2034
      vertex 47.5 138.964 12.4554
      vertex 47.148 139.079 12.3255
    endloop
  endfacet
  facet normal -0.442091 -0.594851 0.671348
    outer loop
      vertex 47.5 138.964 12.4554
      vertex 47.148 136.684 10.2034
      vertex 47.5 136.569 10.3333
    endloop
  endfacet
  facet normal 0.0669358 -0.661691 0.746783
    outer loop
      vertex 45.9136 139.227 12.1588
      vertex 46 136.836 10.0325
      vertex 46 139.231 12.1546
    endloop
  endfacet
  facet normal 0.0680411 -0.661618 0.746747
    outer loop
      vertex 46 136.836 10.0325
      vertex 45.9136 139.227 12.1588
      vertex 45.9597 136.834 10.0344
    endloop
  endfacet
  facet normal 0.55608 -0.551186 0.622068
    outer loop
      vertex 44.2457 138.851 12.5826
      vertex 44.5 136.569 10.3333
      vertex 44.5 138.964 12.4554
    endloop
  endfacet
  facet normal 0.555986 -0.551236 0.622108
    outer loop
      vertex 44.5 136.569 10.3333
      vertex 44.2457 138.851 12.5826
      vertex 44.2073 136.439 10.4797
    endloop
  endfacet
  facet normal 0.191629 0.650887 -0.734591
    outer loop
      vertex 45.5688 132.879 14.4982
      vertex 45.6084 135.269 16.6262
      vertex 45.6084 132.874 14.5041
    endloop
  endfacet
  facet normal 0.193288 0.650656 -0.734362
    outer loop
      vertex 45.6084 135.269 16.6262
      vertex 45.5688 132.879 14.4982
      vertex 45.5235 135.28 16.6136
    endloop
  endfacet
  facet normal -0.831038 0.36887 -0.416306
    outer loop
      vertex 48.5981 133.851 13.4006
      vertex 48.4282 136.078 15.713
      vertex 48.5981 136.246 15.5227
    endloop
  endfacet
  facet normal -0.831324 0.36855 -0.416019
    outer loop
      vertex 48.4282 136.078 15.713
      vertex 48.5981 133.851 13.4006
      vertex 48.4025 133.657 13.6196
    endloop
  endfacet
  facet normal -0.750579 -0.438226 0.494559
    outer loop
      vertex 48.148 136.233 10.7129
      vertex 48.1213 138.648 12.8123
      vertex 48.1213 136.253 10.6901
    endloop
  endfacet
  facet normal -0.751119 -0.437827 0.494093
    outer loop
      vertex 48.1213 138.648 12.8123
      vertex 48.148 136.233 10.7129
      vertex 48.1784 138.605 12.861
    endloop
  endfacet
  facet normal -0.55608 0.551186 -0.622068
    outer loop
      vertex 47.8263 133.268 14.0593
      vertex 47.572 135.55 16.3086
      vertex 47.8263 135.663 16.1814
    endloop
  endfacet
  facet normal -0.555986 0.551236 -0.622108
    outer loop
      vertex 47.572 135.55 16.3086
      vertex 47.8263 133.268 14.0593
      vertex 47.5336 133.138 14.2057
    endloop
  endfacet
  facet normal 0.997822 -0.043762 0.0493532
    outer loop
      vertex 43 137.241 14.4
      vertex 43.0026 134.873 12.2477
      vertex 43.0057 137.298 14.3353
    endloop
  endfacet
  facet normal 0.997947 -0.0424772 0.0479397
    outer loop
      vertex 43.0026 134.873 12.2477
      vertex 43 137.241 14.4
      vertex 43 134.846 12.2779
    endloop
  endfacet
  facet normal 0.751119 -0.437827 0.494093
    outer loop
      vertex 43.852 136.233 10.7129
      vertex 43.8787 138.648 12.8123
      vertex 43.8216 138.605 12.861
    endloop
  endfacet
  facet normal 0.750579 -0.438226 0.494559
    outer loop
      vertex 43.8787 138.648 12.8123
      vertex 43.852 136.233 10.7129
      vertex 43.8787 136.253 10.6901
    endloop
  endfacet
  facet normal 0.196064 -0.650306 0.733935
    outer loop
      vertex 45.3084 139.174 12.2185
      vertex 45.6084 136.819 10.0517
      vertex 45.6084 139.214 12.1738
    endloop
  endfacet
  facet normal 0.195944 -0.650331 0.733945
    outer loop
      vertex 45.6084 136.819 10.0517
      vertex 45.3084 139.174 12.2185
      vertex 45.2632 136.773 10.1031
    endloop
  endfacet
  facet normal -0.0648964 -0.661791 0.746874
    outer loop
      vertex 46.0403 136.834 10.0344
      vertex 46.3916 139.214 12.1738
      vertex 46.0864 139.227 12.1588
    endloop
  endfacet
  facet normal -0.0650372 -0.661774 0.746877
    outer loop
      vertex 46.3916 139.214 12.1738
      vertex 46.0403 136.834 10.0344
      vertex 46.3916 136.819 10.0517
    endloop
  endfacet
  facet normal -0.89687 -0.293319 0.33104
    outer loop
      vertex 48.5981 135.841 11.1552
      vertex 48.7334 138.054 13.4826
      vertex 48.5981 138.236 13.2773
    endloop
  endfacet
  facet normal -0.897095 -0.292981 0.330731
    outer loop
      vertex 48.7334 138.054 13.4826
      vertex 48.5981 135.841 11.1552
      vertex 48.7538 135.631 11.3915
    endloop
  endfacet
  facet normal 0.550707 -0.553493 0.624794
    outer loop
      vertex 44.1737 138.82 12.6186
      vertex 44.2073 136.439 10.4797
      vertex 44.2457 138.851 12.5826
    endloop
  endfacet
  facet normal 0.556783 -0.550745 0.62183
    outer loop
      vertex 44.2073 136.439 10.4797
      vertex 44.1737 138.82 12.6186
      vertex 44.1737 136.424 10.4965
    endloop
  endfacet
  facet normal -0.897741 0.292154 -0.329709
    outer loop
      vertex 48.7538 134.061 13.1643
      vertex 48.7716 136.48 15.2593
      vertex 48.7716 134.085 13.1371
    endloop
  endfacet
  facet normal -0.898016 0.291787 -0.329283
    outer loop
      vertex 48.7716 136.48 15.2593
      vertex 48.7538 134.061 13.1643
      vertex 48.7334 136.428 15.3174
    endloop
  endfacet
  facet normal -0.442244 0.594801 -0.671291
    outer loop
      vertex 47.148 135.403 16.4745
      vertex 47.5 133.123 14.2224
      vertex 47.148 133.008 14.3524
    endloop
  endfacet
  facet normal -0.442091 0.594867 -0.671334
    outer loop
      vertex 47.5 133.123 14.2224
      vertex 47.148 135.403 16.4745
      vertex 47.5 135.518 16.3446
    endloop
  endfacet
  facet normal -0.193978 0.650581 -0.734245
    outer loop
      vertex 46.7765 132.924 14.4468
      vertex 46.4765 135.28 16.6136
      vertex 46.7765 135.319 16.5689
    endloop
  endfacet
  facet normal -0.194078 0.650561 -0.734237
    outer loop
      vertex 46.4765 135.28 16.6136
      vertex 46.7765 132.924 14.4468
      vertex 46.4312 132.879 14.4982
    endloop
  endfacet
  facet normal -0.997822 -0.043762 0.0493532
    outer loop
      vertex 48.9974 134.873 12.2477
      vertex 49 137.241 14.4
      vertex 48.9943 137.298 14.3353
    endloop
  endfacet
  facet normal -0.997947 -0.0424772 0.0479397
    outer loop
      vertex 49 137.241 14.4
      vertex 48.9974 134.873 12.2477
      vertex 49 134.846 12.2779
    endloop
  endfacet
  facet normal -0.658612 0.49903 -0.563205
    outer loop
      vertex 48.1213 133.439 13.8656
      vertex 47.8914 135.701 16.1387
      vertex 48.1213 135.834 15.9877
    endloop
  endfacet
  facet normal -0.659489 0.498437 -0.562703
    outer loop
      vertex 47.8914 135.701 16.1387
      vertex 48.1213 133.439 13.8656
      vertex 47.8567 133.285 14.0393
    endloop
  endfacet
  facet normal -0.555505 0.551456 -0.622343
    outer loop
      vertex 47.5 135.518 16.3446
      vertex 47.5336 133.138 14.2057
      vertex 47.5 133.123 14.2224
    endloop
  endfacet
  facet normal -0.556029 0.551218 -0.622086
    outer loop
      vertex 47.5336 133.138 14.2057
      vertex 47.5 135.518 16.3446
      vertex 47.572 135.55 16.3086
    endloop
  endfacet
  facet normal -0.897095 0.293053 -0.330666
    outer loop
      vertex 48.5981 133.851 13.4006
      vertex 48.7334 136.428 15.3174
      vertex 48.7538 134.061 13.1643
    endloop
  endfacet
  facet normal -0.89687 0.293319 -0.33104
    outer loop
      vertex 48.7334 136.428 15.3174
      vertex 48.5981 133.851 13.4006
      vertex 48.5981 136.246 15.5227
    endloop
  endfacet
  facet normal 0.659795 0.498263 -0.562498
    outer loop
      vertex 44.1737 135.663 16.1814
      vertex 44.1433 133.285 14.0393
      vertex 44.1086 135.701 16.1387
    endloop
  endfacet
  facet normal 0.653459 0.502 -0.566557
    outer loop
      vertex 44.1433 133.285 14.0393
      vertex 44.1737 135.663 16.1814
      vertex 44.1737 133.268 14.0593
    endloop
  endfacet
  facet normal 0.980749 0.129504 -0.146151
    outer loop
      vertex 43.0853 136.783 14.9176
      vertex 43.0257 134.586 12.5709
      vertex 43.0257 136.981 14.6931
    endloop
  endfacet
  facet normal 0.980836 0.129182 -0.145852
    outer loop
      vertex 43.0257 134.586 12.5709
      vertex 43.0853 136.783 14.9176
      vertex 43.0943 134.357 12.8294
    endloop
  endfacet
  facet normal 0.980687 -0.129712 0.14638
    outer loop
      vertex 43.0943 135.335 11.7264
      vertex 43.1022 137.756 13.8188
      vertex 43.0853 137.7 13.8824
    endloop
  endfacet
  facet normal 0.980554 -0.130149 0.146886
    outer loop
      vertex 43.1022 137.756 13.8188
      vertex 43.0943 135.335 11.7264
      vertex 43.1022 135.361 11.6967
    endloop
  endfacet
  facet normal 0.997822 0.0437268 -0.0493843
    outer loop
      vertex 43.0026 134.819 12.308
      vertex 43 137.241 14.4
      vertex 43.0057 137.184 14.4647
    endloop
  endfacet
  facet normal 0.997939 0.0425555 -0.048028
    outer loop
      vertex 43 137.241 14.4
      vertex 43.0026 134.819 12.308
      vertex 43 134.846 12.2779
    endloop
  endfacet
  facet normal 0.980832 -0.129225 0.145843
    outer loop
      vertex 43.0257 135.106 11.9848
      vertex 43.0853 137.7 13.8824
      vertex 43.0257 137.501 14.1069
    endloop
  endfacet
  facet normal 0.980828 -0.129236 0.145858
    outer loop
      vertex 43.0853 137.7 13.8824
      vertex 43.0257 135.106 11.9848
      vertex 43.0943 135.335 11.7264
    endloop
  endfacet
  facet normal 0.946977 -0.21303 0.240526
    outer loop
      vertex 43.1022 137.756 13.8188
      vertex 43.2284 135.607 11.4186
      vertex 43.2284 138.003 13.5407
    endloop
  endfacet
  facet normal 0.946802 -0.213421 0.240866
    outer loop
      vertex 43.2284 135.607 11.4186
      vertex 43.1022 137.756 13.8188
      vertex 43.1022 135.361 11.6967
    endloop
  endfacet
  facet normal 0.659829 -0.498206 0.562509
    outer loop
      vertex 43.8787 138.648 12.8123
      vertex 44.1737 136.424 10.4965
      vertex 44.1737 138.82 12.6186
    endloop
  endfacet
  facet normal 0.658765 -0.498954 0.563092
    outer loop
      vertex 44.1737 136.424 10.4965
      vertex 43.8787 138.648 12.8123
      vertex 43.8787 136.253 10.6901
    endloop
  endfacet
  facet normal 0.193288 -0.650651 0.734366
    outer loop
      vertex 45.2235 139.163 12.2311
      vertex 45.2632 136.773 10.1031
      vertex 45.3084 139.174 12.2185
    endloop
  endfacet
  facet normal 0.191164 -0.650948 0.734659
    outer loop
      vertex 45.2632 136.773 10.1031
      vertex 45.2235 139.163 12.2311
      vertex 45.2235 136.768 10.109
    endloop
  endfacet
  facet normal -0.321109 -0.628085 0.708801
    outer loop
      vertex 46.8147 136.759 10.1187
      vertex 47.148 139.079 12.3255
      vertex 46.8584 139.144 12.2519
    endloop
  endfacet
  facet normal -0.321422 -0.627987 0.708746
    outer loop
      vertex 47.148 139.079 12.3255
      vertex 46.8147 136.759 10.1187
      vertex 47.148 136.684 10.2034
    endloop
  endfacet
  facet normal 0.0648964 -0.661791 0.746874
    outer loop
      vertex 45.6084 139.214 12.1738
      vertex 45.9597 136.834 10.0344
      vertex 45.9136 139.227 12.1588
    endloop
  endfacet
  facet normal 0.0650372 -0.661774 0.746877
    outer loop
      vertex 45.9597 136.834 10.0344
      vertex 45.6084 139.214 12.1738
      vertex 45.6084 136.819 10.0517
    endloop
  endfacet
  facet normal -0.659829 -0.498206 0.562509
    outer loop
      vertex 47.8263 136.424 10.4965
      vertex 48.1213 138.648 12.8123
      vertex 47.8263 138.82 12.6186
    endloop
  endfacet
  facet normal -0.658765 -0.498954 0.563092
    outer loop
      vertex 48.1213 138.648 12.8123
      vertex 47.8263 136.424 10.4965
      vertex 48.1213 136.253 10.6901
    endloop
  endfacet
  facet normal -0.946802 0.213426 -0.240861
    outer loop
      vertex 48.8978 134.331 12.859
      vertex 48.7716 136.48 15.2593
      vertex 48.8978 136.726 14.9812
    endloop
  endfacet
  facet normal -0.946802 0.213426 -0.240861
    outer loop
      vertex 48.7716 136.48 15.2593
      vertex 48.8978 134.331 12.859
      vertex 48.7716 134.085 13.1371
    endloop
  endfacet
  facet normal -0.749769 0.438825 -0.495257
    outer loop
      vertex 48.3534 133.615 13.6675
      vertex 48.3801 136.03 15.7669
      vertex 48.3801 133.635 13.6448
    endloop
  endfacet
  facet normal -0.751119 0.437827 -0.494093
    outer loop
      vertex 48.3801 136.03 15.7669
      vertex 48.3534 133.615 13.6675
      vertex 48.323 135.987 15.8156
    endloop
  endfacet
  facet normal -0.0680411 0.661618 -0.746747
    outer loop
      vertex 46.3052 135.265 16.6304
      vertex 46.3916 132.874 14.5041
      vertex 46.3513 132.872 14.506
    endloop
  endfacet
  facet normal -0.0669358 0.661691 -0.746783
    outer loop
      vertex 46.3916 132.874 14.5041
      vertex 46.3052 135.265 16.6304
      vertex 46.3916 135.269 16.6262
    endloop
  endfacet
  facet normal 0.751119 0.437827 -0.494093
    outer loop
      vertex 43.6466 133.615 13.6675
      vertex 43.6199 136.03 15.7669
      vertex 43.677 135.987 15.8156
    endloop
  endfacet
  facet normal 0.749769 0.438825 -0.495257
    outer loop
      vertex 43.6199 136.03 15.7669
      vertex 43.6466 133.615 13.6675
      vertex 43.6199 133.635 13.6448
    endloop
  endfacet
  facet normal 0.194078 0.650561 -0.734237
    outer loop
      vertex 45.2235 132.924 14.4468
      vertex 45.5235 135.28 16.6136
      vertex 45.5688 132.879 14.4982
    endloop
  endfacet
  facet normal 0.193978 0.650581 -0.734245
    outer loop
      vertex 45.5235 135.28 16.6136
      vertex 45.2235 132.924 14.4468
      vertex 45.2235 135.319 16.5689
    endloop
  endfacet
  facet normal 0.75224 0.436961 -0.493154
    outer loop
      vertex 43.8787 133.439 13.8656
      vertex 43.677 135.987 15.8156
      vertex 43.8787 135.834 15.9877
    endloop
  endfacet
  facet normal 0.752247 0.436956 -0.493147
    outer loop
      vertex 43.677 135.987 15.8156
      vertex 43.8787 133.439 13.8656
      vertex 43.6466 133.615 13.6675
    endloop
  endfacet
  facet normal -0.946977 -0.21303 0.240526
    outer loop
      vertex 48.7716 135.607 11.4186
      vertex 48.8978 137.756 13.8188
      vertex 48.7716 138.003 13.5407
    endloop
  endfacet
  facet normal -0.946802 -0.213421 0.240866
    outer loop
      vertex 48.8978 137.756 13.8188
      vertex 48.7716 135.607 11.4186
      vertex 48.8978 135.361 11.6967
    endloop
  endfacet
  facet normal -0.0650372 0.661774 -0.746877
    outer loop
      vertex 46 135.252 16.6454
      vertex 46.3513 132.872 14.506
      vertex 46 132.857 14.5233
    endloop
  endfacet
  facet normal -0.0648964 0.661791 -0.746874
    outer loop
      vertex 46.3513 132.872 14.506
      vertex 46 135.252 16.6454
      vertex 46.3052 135.265 16.6304
    endloop
  endfacet
  facet normal 0.0650372 0.661774 -0.746877
    outer loop
      vertex 45.6487 132.872 14.506
      vertex 46 135.252 16.6454
      vertex 46 132.857 14.5233
    endloop
  endfacet
  facet normal 0.0648964 0.661791 -0.746874
    outer loop
      vertex 46 135.252 16.6454
      vertex 45.6487 132.872 14.506
      vertex 45.6948 135.265 16.6304
    endloop
  endfacet
  facet normal 0.658612 0.49903 -0.563205
    outer loop
      vertex 44.1086 135.701 16.1387
      vertex 43.8787 133.439 13.8656
      vertex 43.8787 135.834 15.9877
    endloop
  endfacet
  facet normal 0.659489 0.498437 -0.562703
    outer loop
      vertex 43.8787 133.439 13.8656
      vertex 44.1086 135.701 16.1387
      vertex 44.1433 133.285 14.0393
    endloop
  endfacet
  facet normal 0.442244 0.594801 -0.671291
    outer loop
      vertex 44.5 133.123 14.2224
      vertex 44.852 135.403 16.4745
      vertex 44.852 133.008 14.3524
    endloop
  endfacet
  facet normal 0.442091 0.594867 -0.671334
    outer loop
      vertex 44.852 135.403 16.4745
      vertex 44.5 133.123 14.2224
      vertex 44.5 135.518 16.3446
    endloop
  endfacet
  facet normal 0.831281 -0.368638 0.416025
    outer loop
      vertex 43.4019 138.236 13.2773
      vertex 43.6199 136.057 10.9109
      vertex 43.6199 138.452 13.0331
    endloop
  endfacet
  facet normal 0.83134 -0.36857 0.415968
    outer loop
      vertex 43.6199 136.057 10.9109
      vertex 43.4019 138.236 13.2773
      vertex 43.4019 135.841 11.1552
    endloop
  endfacet
  facet normal 0.89687 0.293319 -0.33104
    outer loop
      vertex 43.4019 133.851 13.4006
      vertex 43.2666 136.428 15.3174
      vertex 43.4019 136.246 15.5227
    endloop
  endfacet
  facet normal 0.897095 0.293053 -0.330666
    outer loop
      vertex 43.2666 136.428 15.3174
      vertex 43.4019 133.851 13.4006
      vertex 43.2462 134.061 13.1643
    endloop
  endfacet
  facet normal 0.980978 0.128716 -0.14531
    outer loop
      vertex 43.1022 136.726 14.9812
      vertex 43.0943 134.357 12.8294
      vertex 43.0853 136.783 14.9176
    endloop
  endfacet
  facet normal 0.980482 0.13039 -0.147151
    outer loop
      vertex 43.0943 134.357 12.8294
      vertex 43.1022 136.726 14.9812
      vertex 43.1022 134.331 12.859
    endloop
  endfacet
  facet normal -0.980828 -0.129236 0.145858
    outer loop
      vertex 48.9743 135.106 11.9848
      vertex 48.9147 137.7 13.8824
      vertex 48.9057 135.335 11.7264
    endloop
  endfacet
  facet normal -0.980832 -0.129225 0.145843
    outer loop
      vertex 48.9147 137.7 13.8824
      vertex 48.9743 135.106 11.9848
      vertex 48.9743 137.501 14.1069
    endloop
  endfacet
  facet normal 0.321109 -0.628085 0.708801
    outer loop
      vertex 44.852 139.079 12.3255
      vertex 45.1853 136.759 10.1187
      vertex 45.1416 139.144 12.2519
    endloop
  endfacet
  facet normal 0.321422 -0.627987 0.708746
    outer loop
      vertex 45.1853 136.759 10.1187
      vertex 44.852 139.079 12.3255
      vertex 44.852 136.684 10.2034
    endloop
  endfacet
  facet normal -0.0669358 -0.661691 0.746783
    outer loop
      vertex 46 136.836 10.0325
      vertex 46.0864 139.227 12.1588
      vertex 46 139.231 12.1546
    endloop
  endfacet
  facet normal -0.0680411 -0.661618 0.746747
    outer loop
      vertex 46.0864 139.227 12.1588
      vertex 46 136.836 10.0325
      vertex 46.0403 136.834 10.0344
    endloop
  endfacet
  facet normal -0.196064 -0.650306 0.733935
    outer loop
      vertex 46.3916 136.819 10.0517
      vertex 46.6916 139.174 12.2185
      vertex 46.3916 139.214 12.1738
    endloop
  endfacet
  facet normal -0.195944 -0.650331 0.733945
    outer loop
      vertex 46.6916 139.174 12.2185
      vertex 46.3916 136.819 10.0517
      vertex 46.7368 136.773 10.1031
    endloop
  endfacet
  facet normal 0.442091 -0.594851 0.671348
    outer loop
      vertex 44.5 138.964 12.4554
      vertex 44.852 136.684 10.2034
      vertex 44.852 139.079 12.3255
    endloop
  endfacet
  facet normal 0.442091 -0.594851 0.671348
    outer loop
      vertex 44.852 136.684 10.2034
      vertex 44.5 138.964 12.4554
      vertex 44.5 136.569 10.3333
    endloop
  endfacet
  facet normal -0.55608 -0.551186 0.622068
    outer loop
      vertex 47.5 136.569 10.3333
      vertex 47.7543 138.851 12.5826
      vertex 47.5 138.964 12.4554
    endloop
  endfacet
  facet normal -0.555986 -0.551236 0.622108
    outer loop
      vertex 47.7543 138.851 12.5826
      vertex 47.5 136.569 10.3333
      vertex 47.7927 136.439 10.4797
    endloop
  endfacet
  facet normal -0.980554 -0.130149 0.146886
    outer loop
      vertex 48.9057 135.335 11.7264
      vertex 48.8978 137.756 13.8188
      vertex 48.8978 135.361 11.6967
    endloop
  endfacet
  facet normal -0.980687 -0.129712 0.14638
    outer loop
      vertex 48.8978 137.756 13.8188
      vertex 48.9057 135.335 11.7264
      vertex 48.9147 137.7 13.8824
    endloop
  endfacet
  facet normal -0.980749 0.129504 -0.146151
    outer loop
      vertex 48.9743 134.586 12.5709
      vertex 48.9147 136.783 14.9176
      vertex 48.9743 136.981 14.6931
    endloop
  endfacet
  facet normal -0.980836 0.129182 -0.145852
    outer loop
      vertex 48.9147 136.783 14.9176
      vertex 48.9743 134.586 12.5709
      vertex 48.9057 134.357 12.8294
    endloop
  endfacet
  facet normal 0.321422 0.627987 -0.708746
    outer loop
      vertex 44.8902 132.999 14.3621
      vertex 45.2235 135.319 16.5689
      vertex 45.2235 132.924 14.4468
    endloop
  endfacet
  facet normal 0.323052 0.627477 -0.708456
    outer loop
      vertex 45.2235 135.319 16.5689
      vertex 44.8902 132.999 14.3621
      vertex 44.9339 135.385 16.4953
    endloop
  endfacet
  facet normal 0.555986 0.551236 -0.622108
    outer loop
      vertex 44.1737 133.268 14.0593
      vertex 44.428 135.55 16.3086
      vertex 44.4664 133.138 14.2057
    endloop
  endfacet
  facet normal 0.55608 0.551186 -0.622068
    outer loop
      vertex 44.428 135.55 16.3086
      vertex 44.1737 133.268 14.0593
      vertex 44.1737 135.663 16.1814
    endloop
  endfacet
  facet normal -0.659795 0.498263 -0.562498
    outer loop
      vertex 47.8567 133.285 14.0393
      vertex 47.8263 135.663 16.1814
      vertex 47.8914 135.701 16.1387
    endloop
  endfacet
  facet normal -0.653459 0.502 -0.566557
    outer loop
      vertex 47.8263 135.663 16.1814
      vertex 47.8567 133.285 14.0393
      vertex 47.8263 133.268 14.0593
    endloop
  endfacet
  facet normal 0.555505 0.551456 -0.622343
    outer loop
      vertex 44.4664 133.138 14.2057
      vertex 44.5 135.518 16.3446
      vertex 44.5 133.123 14.2224
    endloop
  endfacet
  facet normal 0.556029 0.551218 -0.622086
    outer loop
      vertex 44.5 135.518 16.3446
      vertex 44.4664 133.138 14.2057
      vertex 44.428 135.55 16.3086
    endloop
  endfacet
  facet normal 0.832138 0.367757 -0.415092
    outer loop
      vertex 43.6199 136.03 15.7669
      vertex 43.5975 133.657 13.6196
      vertex 43.5718 136.078 15.713
    endloop
  endfacet
  facet normal 0.830911 0.368996 -0.416448
    outer loop
      vertex 43.5975 133.657 13.6196
      vertex 43.6199 136.03 15.7669
      vertex 43.6199 133.635 13.6448
    endloop
  endfacet
  facet normal 0.831038 0.36887 -0.416306
    outer loop
      vertex 43.5718 136.078 15.713
      vertex 43.4019 133.851 13.4006
      vertex 43.4019 136.246 15.5227
    endloop
  endfacet
  facet normal 0.831324 0.36855 -0.416019
    outer loop
      vertex 43.4019 133.851 13.4006
      vertex 43.5718 136.078 15.713
      vertex 43.5975 133.657 13.6196
    endloop
  endfacet
  facet normal 0.89687 -0.293319 0.33104
    outer loop
      vertex 43.2666 138.054 13.4826
      vertex 43.4019 135.841 11.1552
      vertex 43.4019 138.236 13.2773
    endloop
  endfacet
  facet normal 0.897095 -0.292981 0.330731
    outer loop
      vertex 43.4019 135.841 11.1552
      vertex 43.2666 138.054 13.4826
      vertex 43.2462 135.631 11.3915
    endloop
  endfacet
  facet normal 0.75224 -0.436972 0.493143
    outer loop
      vertex 43.6199 136.057 10.9109
      vertex 43.8216 138.605 12.861
      vertex 43.6199 138.452 13.0331
    endloop
  endfacet
  facet normal 0.752155 -0.437027 0.493224
    outer loop
      vertex 43.8216 138.605 12.861
      vertex 43.6199 136.057 10.9109
      vertex 43.852 136.233 10.7129
    endloop
  endfacet
  facet normal 0.997865 -0.0433127 0.0488827
    outer loop
      vertex 43.0057 137.298 14.3353
      vertex 43.0257 135.106 11.9848
      vertex 43.0257 137.501 14.1069
    endloop
  endfacet
  facet normal 0.997845 -0.0435368 0.0490915
    outer loop
      vertex 43.0257 135.106 11.9848
      vertex 43.0057 137.298 14.3353
      vertex 43.0026 134.873 12.2477
    endloop
  endfacet
  facet normal 0.896523 -0.293736 0.331612
    outer loop
      vertex 43.2284 138.003 13.5407
      vertex 43.2462 135.631 11.3915
      vertex 43.2666 138.054 13.4826
    endloop
  endfacet
  facet normal 0.89738 -0.292564 0.330326
    outer loop
      vertex 43.2462 135.631 11.3915
      vertex 43.2284 138.003 13.5407
      vertex 43.2284 135.607 11.4186
    endloop
  endfacet
  facet normal 0.946802 0.213426 -0.240861
    outer loop
      vertex 43.2284 136.48 15.2593
      vertex 43.1022 134.331 12.859
      vertex 43.1022 136.726 14.9812
    endloop
  endfacet
  facet normal 0.946802 0.213426 -0.240861
    outer loop
      vertex 43.1022 134.331 12.859
      vertex 43.2284 136.48 15.2593
      vertex 43.2284 134.085 13.1371
    endloop
  endfacet
  facet normal 0.898016 0.291787 -0.329283
    outer loop
      vertex 43.2462 134.061 13.1643
      vertex 43.2284 136.48 15.2593
      vertex 43.2666 136.428 15.3174
    endloop
  endfacet
  facet normal 0.897741 0.292154 -0.329709
    outer loop
      vertex 43.2284 136.48 15.2593
      vertex 43.2462 134.061 13.1643
      vertex 43.2284 134.085 13.1371
    endloop
  endfacet
  facet normal -0.752155 -0.437027 0.493224
    outer loop
      vertex 48.3801 136.057 10.9109
      vertex 48.1784 138.605 12.861
      vertex 48.148 136.233 10.7129
    endloop
  endfacet
  facet normal -0.75224 -0.436972 0.493143
    outer loop
      vertex 48.1784 138.605 12.861
      vertex 48.3801 136.057 10.9109
      vertex 48.3801 138.452 13.0331
    endloop
  endfacet
  facet normal -0.831281 -0.368638 0.416025
    outer loop
      vertex 48.3801 136.057 10.9109
      vertex 48.5981 138.236 13.2773
      vertex 48.3801 138.452 13.0331
    endloop
  endfacet
  facet normal -0.83134 -0.36857 0.415968
    outer loop
      vertex 48.5981 138.236 13.2773
      vertex 48.3801 136.057 10.9109
      vertex 48.5981 135.841 11.1552
    endloop
  endfacet
  facet normal -0.325237 -0.627122 0.70777
    outer loop
      vertex 46.7765 136.768 10.109
      vertex 46.8584 139.144 12.2519
      vertex 46.7765 139.163 12.2311
    endloop
  endfacet
  facet normal -0.327234 -0.626623 0.707292
    outer loop
      vertex 46.8584 139.144 12.2519
      vertex 46.7765 136.768 10.109
      vertex 46.8147 136.759 10.1187
    endloop
  endfacet
  facet normal -0.191164 -0.650948 0.734659
    outer loop
      vertex 46.7765 139.163 12.2311
      vertex 46.7368 136.773 10.1031
      vertex 46.7765 136.768 10.109
    endloop
  endfacet
  facet normal -0.193288 -0.650651 0.734366
    outer loop
      vertex 46.7368 136.773 10.1031
      vertex 46.7765 139.163 12.2311
      vertex 46.6916 139.174 12.2185
    endloop
  endfacet
  facet normal -0.556783 -0.550745 0.62183
    outer loop
      vertex 47.8263 138.82 12.6186
      vertex 47.7927 136.439 10.4797
      vertex 47.8263 136.424 10.4965
    endloop
  endfacet
  facet normal -0.550707 -0.553493 0.624794
    outer loop
      vertex 47.7927 136.439 10.4797
      vertex 47.8263 138.82 12.6186
      vertex 47.7543 138.851 12.5826
    endloop
  endfacet
  facet normal -0.997865 -0.0433127 0.0488827
    outer loop
      vertex 48.9743 135.106 11.9848
      vertex 48.9943 137.298 14.3353
      vertex 48.9743 137.501 14.1069
    endloop
  endfacet
  facet normal -0.997845 -0.0435368 0.0490915
    outer loop
      vertex 48.9943 137.298 14.3353
      vertex 48.9743 135.106 11.9848
      vertex 48.9974 134.873 12.2477
    endloop
  endfacet
  facet normal -0.980978 0.128716 -0.14531
    outer loop
      vertex 48.9057 134.357 12.8294
      vertex 48.8978 136.726 14.9812
      vertex 48.9147 136.783 14.9176
    endloop
  endfacet
  facet normal -0.980482 0.13039 -0.147151
    outer loop
      vertex 48.8978 136.726 14.9812
      vertex 48.9057 134.357 12.8294
      vertex 48.8978 134.331 12.859
    endloop
  endfacet
  facet normal 0.327233 0.626476 -0.707422
    outer loop
      vertex 44.852 133.008 14.3524
      vertex 44.9339 135.385 16.4953
      vertex 44.8902 132.999 14.3621
    endloop
  endfacet
  facet normal 0.318365 0.628672 -0.709518
    outer loop
      vertex 44.9339 135.385 16.4953
      vertex 44.852 133.008 14.3524
      vertex 44.852 135.403 16.4745
    endloop
  endfacet
  facet normal -0.832138 0.367757 -0.415092
    outer loop
      vertex 48.4025 133.657 13.6196
      vertex 48.3801 136.03 15.7669
      vertex 48.4282 136.078 15.713
    endloop
  endfacet
  facet normal -0.830911 0.368996 -0.416448
    outer loop
      vertex 48.3801 136.03 15.7669
      vertex 48.4025 133.657 13.6196
      vertex 48.3801 133.635 13.6448
    endloop
  endfacet
  facet normal -0.191629 0.650887 -0.734591
    outer loop
      vertex 46.3916 135.269 16.6262
      vertex 46.4312 132.879 14.4982
      vertex 46.3916 132.874 14.5041
    endloop
  endfacet
  facet normal -0.193288 0.650656 -0.734362
    outer loop
      vertex 46.4312 132.879 14.4982
      vertex 46.3916 135.269 16.6262
      vertex 46.4765 135.28 16.6136
    endloop
  endfacet
  facet normal -0.896523 -0.293736 0.331612
    outer loop
      vertex 48.7538 135.631 11.3915
      vertex 48.7716 138.003 13.5407
      vertex 48.7334 138.054 13.4826
    endloop
  endfacet
  facet normal -0.89738 -0.292564 0.330326
    outer loop
      vertex 48.7716 138.003 13.5407
      vertex 48.7538 135.631 11.3915
      vertex 48.7716 135.607 11.4186
    endloop
  endfacet
  facet normal -0.327233 0.626476 -0.707422
    outer loop
      vertex 47.0661 135.385 16.4953
      vertex 47.148 133.008 14.3524
      vertex 47.1098 132.999 14.3621
    endloop
  endfacet
  facet normal -0.318365 0.628672 -0.709518
    outer loop
      vertex 47.148 133.008 14.3524
      vertex 47.0661 135.385 16.4953
      vertex 47.148 135.403 16.4745
    endloop
  endfacet
  facet normal -0.321422 0.627987 -0.708746
    outer loop
      vertex 46.7765 135.319 16.5689
      vertex 47.1098 132.999 14.3621
      vertex 46.7765 132.924 14.4468
    endloop
  endfacet
  facet normal -0.323052 0.627477 -0.708456
    outer loop
      vertex 47.1098 132.999 14.3621
      vertex 46.7765 135.319 16.5689
      vertex 47.0661 135.385 16.4953
    endloop
  endfacet
  facet normal 0.325237 -0.627122 0.70777
    outer loop
      vertex 45.1416 139.144 12.2519
      vertex 45.2235 136.768 10.109
      vertex 45.2235 139.163 12.2311
    endloop
  endfacet
  facet normal 0.327234 -0.626623 0.707292
    outer loop
      vertex 45.2235 136.768 10.109
      vertex 45.1416 139.144 12.2519
      vertex 45.1853 136.759 10.1187
    endloop
  endfacet
  facet normal -1 0 0
    outer loop
      vertex 0 150 0
      vertex 0 0 0
      vertex 0 43.6764 120
    endloop
  endfacet
  facet normal 0 0 -1
    outer loop
      vertex 150 0 0
      vertex 4.2 4.2 0
      vertex 150 4.2 0
    endloop
  endfacet
  facet normal -0 0 -1
    outer loop
      vertex 4.2 4.2 0
      vertex 0 0 0
      vertex 4.2 145.8 0
    endloop
  endfacet
  facet normal 0 0 -1
    outer loop
      vertex 0 0 0
      vertex 4.2 4.2 0
      vertex 150 0 0
    endloop
  endfacet
  facet normal 0 0 -1
    outer loop
      vertex 4.2 145.8 0
      vertex 150 150 0
      vertex 150 145.8 0
    endloop
  endfacet
  facet normal 0 0 -1
    outer loop
      vertex 4.2 145.8 0
      vertex 0 150 0
      vertex 150 150 0
    endloop
  endfacet
  facet normal 0 0 -1
    outer loop
      vertex 0 150 0
      vertex 4.2 145.8 0
      vertex 0 0 0
    endloop
  endfacet
  facet normal -0 0.748579 0.663046
    outer loop
      vertex 127 134.159 17.8784
      vertex 150 132.159 20.1364
      vertex 150 134.159 17.8784
    endloop
  endfacet
  facet normal -0 0.74847 0.663169
    outer loop
      vertex 14.42 61.5179 99.8636
      vertex 150 43.6764 120
      vertex 150 61.5179 99.8636
    endloop
  endfacet
  facet normal 0 0.74847 0.663169
    outer loop
      vertex 150 43.6764 120
      vertex 14.42 61.5179 99.8636
      vertex 0 43.6764 120
    endloop
  endfacet
  facet normal 2.99946e-06 0.748469 0.66317
    outer loop
      vertex 14.42 132.159 20.1364
      vertex 0 43.6764 120
      vertex 14.42 61.5179 99.8636
    endloop
  endfacet
  facet normal 0 0.748579 0.663046
    outer loop
      vertex 150 132.159 20.1364
      vertex 127 134.159 17.8784
      vertex 14.42 132.159 20.1364
    endloop
  endfacet
  facet normal 4.58831e-06 0.748465 0.663174
    outer loop
      vertex 46.3916 135.269 16.6262
      vertex 14.42 132.159 20.1364
      vertex 127 134.159 17.8784
    endloop
  endfacet
  facet normal -0.000493586 0.750697 0.660647
    outer loop
      vertex 45.6948 135.265 16.6304
      vertex 14.42 132.159 20.1364
      vertex 46 135.252 16.6454
    endloop
  endfacet
  facet normal 0.00167029 0.741072 0.671423
    outer loop
      vertex 45.6084 135.269 16.6262
      vertex 14.42 132.159 20.1364
      vertex 45.6948 135.265 16.6304
    endloop
  endfacet
  facet normal -0.000623824 0.751231 0.66004
    outer loop
      vertex 45.5235 135.28 16.6136
      vertex 14.42 132.159 20.1364
      vertex 45.6084 135.269 16.6262
    endloop
  endfacet
  facet normal -0.000650745 0.751348 0.659906
    outer loop
      vertex 45.2235 135.319 16.5689
      vertex 14.42 132.159 20.1364
      vertex 45.5235 135.28 16.6136
    endloop
  endfacet
  facet normal 0.000650572 0.745771 0.666202
    outer loop
      vertex 44.9339 135.385 16.4953
      vertex 14.42 132.159 20.1364
      vertex 45.2235 135.319 16.5689
    endloop
  endfacet
  facet normal -0.00126116 0.753706 0.657211
    outer loop
      vertex 44.852 135.403 16.4745
      vertex 14.42 132.159 20.1364
      vertex 44.9339 135.385 16.4953
    endloop
  endfacet
  facet normal -3.95761e-05 0.74869 0.66292
    outer loop
      vertex 44.5 135.518 16.3446
      vertex 14.42 132.159 20.1364
      vertex 44.852 135.403 16.4745
    endloop
  endfacet
  facet normal 0.000228058 0.747636 0.664109
    outer loop
      vertex 44.428 135.55 16.3086
      vertex 14.42 132.159 20.1364
      vertex 44.5 135.518 16.3446
    endloop
  endfacet
  facet normal 0.000188289 0.747791 0.663934
    outer loop
      vertex 44.1737 135.663 16.1814
      vertex 14.42 132.159 20.1364
      vertex 44.428 135.55 16.3086
    endloop
  endfacet
  facet normal 0.000327283 0.747271 0.66452
    outer loop
      vertex 44.1086 135.701 16.1387
      vertex 14.42 132.159 20.1364
      vertex 44.1737 135.663 16.1814
    endloop
  endfacet
  facet normal -0.000437093 0.750087 0.661339
    outer loop
      vertex 43.8787 135.834 15.9877
      vertex 14.42 132.159 20.1364
      vertex 44.1086 135.701 16.1387
    endloop
  endfacet
  facet normal 0.000289007 0.74753 0.664229
    outer loop
      vertex 43.677 135.987 15.8156
      vertex 14.42 132.159 20.1364
      vertex 43.8787 135.834 15.9877
    endloop
  endfacet
  facet normal -0.000282108 0.749449 0.662062
    outer loop
      vertex 43.6199 136.03 15.7669
      vertex 14.42 132.159 20.1364
      vertex 43.677 135.987 15.8156
    endloop
  endfacet
  facet normal 0.000456018 0.746999 0.664824
    outer loop
      vertex 43.5718 136.078 15.713
      vertex 14.42 132.159 20.1364
      vertex 43.6199 136.03 15.7669
    endloop
  endfacet
  facet normal -0.000315856 0.749525 0.661975
    outer loop
      vertex 43.4019 136.246 15.5227
      vertex 14.42 132.159 20.1364
      vertex 43.5718 136.078 15.713
    endloop
  endfacet
  facet normal 7.19722e-05 0.748317 0.663341
    outer loop
      vertex 43.2666 136.428 15.3174
      vertex 14.42 132.159 20.1364
      vertex 43.4019 136.246 15.5227
    endloop
  endfacet
  facet normal 0.00102563 0.745475 0.666532
    outer loop
      vertex 43.2284 136.48 15.2593
      vertex 14.42 132.159 20.1364
      vertex 43.2666 136.428 15.3174
    endloop
  endfacet
  facet normal -0.000165255 0.748975 0.662599
    outer loop
      vertex 43.1022 136.726 14.9812
      vertex 14.42 132.159 20.1364
      vertex 43.2284 136.48 15.2593
    endloop
  endfacet
  facet normal 0.00131926 0.744863 0.667216
    outer loop
      vertex 43.0853 136.783 14.9176
      vertex 14.42 132.159 20.1364
      vertex 43.1022 136.726 14.9812
    endloop
  endfacet
  facet normal -0.000529733 0.749914 0.661535
    outer loop
      vertex 43.0257 136.981 14.6931
      vertex 14.42 132.159 20.1364
      vertex 43.0853 136.783 14.9176
    endloop
  endfacet
  facet normal 0.000410179 0.747463 0.664303
    outer loop
      vertex 43.0057 137.184 14.4647
      vertex 14.42 132.159 20.1364
      vertex 43.0257 136.981 14.6931
    endloop
  endfacet
  facet normal -0.00072989 0.750313 0.661082
    outer loop
      vertex 43 137.241 14.4
      vertex 14.42 132.159 20.1364
      vertex 43.0057 137.184 14.4647
    endloop
  endfacet
  facet normal -0.000756232 0.750378 0.661008
    outer loop
      vertex 43.0057 137.298 14.3353
      vertex 14.42 132.159 20.1364
      vertex 43 137.241 14.4
    endloop
  endfacet
  facet normal 0.000451711 0.747426 0.664345
    outer loop
      vertex 43.0257 137.501 14.1069
      vertex 14.42 132.159 20.1364
      vertex 43.0057 137.298 14.3353
    endloop
  endfacet
  facet normal 7.30097e-05 0.748319 0.66334
    outer loop
      vertex 43.0853 137.7 13.8824
      vertex 14.42 132.159 20.1364
      vertex 43.0257 137.501 14.1069
    endloop
  endfacet
  facet normal -0.00095441 0.750652 0.660698
    outer loop
      vertex 43.1022 137.756 13.8188
      vertex 14.42 132.159 20.1364
      vertex 43.0853 137.7 13.8824
    endloop
  endfacet
  facet normal 0.000408351 0.747584 0.664167
    outer loop
      vertex 43.2284 138.003 13.5407
      vertex 14.42 132.159 20.1364
      vertex 43.1022 137.756 13.8188
    endloop
  endfacet
  facet normal -0.00166923 0.752077 0.659073
    outer loop
      vertex 43.2666 138.054 13.4826
      vertex 14.42 132.159 20.1364
      vertex 43.2284 138.003 13.5407
    endloop
  endfacet
  facet normal 0.000111465 0.748257 0.663409
    outer loop
      vertex 43.4019 138.236 13.2773
      vertex 14.42 132.159 20.1364
      vertex 43.2666 138.054 13.4826
    endloop
  endfacet
  facet normal 0.00027041 0.748912 0.66267
    outer loop
      vertex 0 150 0
      vertex 43.4019 138.236 13.2773
      vertex 43.6199 138.452 13.0331
    endloop
  endfacet
  facet normal -0.000490784 0.747647 0.664096
    outer loop
      vertex 0 150 0
      vertex 43.6199 138.452 13.0331
      vertex 43.8216 138.605 12.861
    endloop
  endfacet
  facet normal 0.000499857 0.749322 0.662205
    outer loop
      vertex 0 150 0
      vertex 43.8216 138.605 12.861
      vertex 43.8787 138.648 12.8123
    endloop
  endfacet
  facet normal -0.000294415 0.747973 0.66373
    outer loop
      vertex 0 150 0
      vertex 43.8787 138.648 12.8123
      vertex 44.1737 138.82 12.6186
    endloop
  endfacet
  facet normal 0.00341247 0.75438 0.65643
    outer loop
      vertex 0 150 0
      vertex 44.1737 138.82 12.6186
      vertex 44.2457 138.851 12.5826
    endloop
  endfacet
  facet normal -0.000311863 0.747913 0.663796
    outer loop
      vertex 0 150 0
      vertex 44.2457 138.851 12.5826
      vertex 44.5 138.964 12.4554
    endloop
  endfacet
  facet normal 8.87757e-05 0.748624 0.662995
    outer loop
      vertex 0 150 0
      vertex 44.5 138.964 12.4554
      vertex 44.852 139.079 12.3255
    endloop
  endfacet
  facet normal 0.250992 -0.0225028 0.967727
    outer loop
      vertex 45.2235 139.163 12.2311
      vertex 44.852 139.079 12.3255
      vertex 45.1416 139.144 12.2519
    endloop
  endfacet
  facet normal 0.00298169 0.754052 0.656808
    outer loop
      vertex 46.0864 139.227 12.1588
      vertex 0 150 0
      vertex 46 139.231 12.1546
    endloop
  endfacet
  facet normal -0.00202946 0.744655 0.667446
    outer loop
      vertex 46 139.231 12.1546
      vertex 0 150 0
      vertex 45.9136 139.227 12.1588
    endloop
  endfacet
  facet normal -2.35904e-05 0.748471 0.663168
    outer loop
      vertex 14.42 132.159 20.1364
      vertex 0 150 0
      vertex 0 43.6764 120
    endloop
  endfacet
  facet normal 4.71604e-06 0.748481 0.663156
    outer loop
      vertex 43.4019 138.236 13.2773
      vertex 0 150 0
      vertex 14.42 132.159 20.1364
    endloop
  endfacet
  facet normal -0.000373311 0.747789 0.663936
    outer loop
      vertex 45.2235 139.163 12.2311
      vertex 0 150 0
      vertex 44.852 139.079 12.3255
    endloop
  endfacet
  facet normal 0.000934844 0.750187 0.661225
    outer loop
      vertex 45.3084 139.174 12.2185
      vertex 0 150 0
      vertex 45.2235 139.163 12.2311
    endloop
  endfacet
  facet normal -0.000632659 0.747304 0.664482
    outer loop
      vertex 45.6084 139.214 12.1738
      vertex 0 150 0
      vertex 45.3084 139.174 12.2185
    endloop
  endfacet
  facet normal 0.000601544 0.749599 0.661892
    outer loop
      vertex 45.9136 139.227 12.1588
      vertex 0 150 0
      vertex 45.6084 139.214 12.1738
    endloop
  endfacet
  facet normal 0 0.748465 0.663175
    outer loop
      vertex 150 150 0
      vertex 127 138.591 12.8763
      vertex 150 138.591 12.8763
    endloop
  endfacet
  facet normal 5.87996e-07 0.748464 0.663175
    outer loop
      vertex 47.5 138.964 12.4554
      vertex 127 138.591 12.8763
      vertex 150 150 0
    endloop
  endfacet
  facet normal 4.66833e-06 0.749616 0.661873
    outer loop
      vertex 127 138.591 12.8763
      vertex 48.1213 138.648 12.8123
      vertex 48.1784 138.605 12.861
    endloop
  endfacet
  facet normal 1.61213e-06 0.747751 0.663979
    outer loop
      vertex 127 138.591 12.8763
      vertex 47.8263 138.82 12.6186
      vertex 48.1213 138.648 12.8123
    endloop
  endfacet
  facet normal 6.83249e-05 0.757836 0.652445
    outer loop
      vertex 127 138.591 12.8763
      vertex 47.7543 138.851 12.5826
      vertex 47.8263 138.82 12.6186
    endloop
  endfacet
  facet normal -8.67493e-06 0.747595 0.664155
    outer loop
      vertex 127 138.591 12.8763
      vertex 47.5 138.964 12.4554
      vertex 47.7543 138.851 12.5826
    endloop
  endfacet
  facet normal -5.09888e-05 0.748675 0.662937
    outer loop
      vertex 47.5 138.964 12.4554
      vertex 150 150 0
      vertex 47.148 139.079 12.3255
    endloop
  endfacet
  facet normal -0.000176757 0.749195 0.662349
    outer loop
      vertex 47.148 139.079 12.3255
      vertex 150 150 0
      vertex 46.8584 139.144 12.2519
    endloop
  endfacet
  facet normal 0.00164412 0.741546 0.6709
    outer loop
      vertex 46.8584 139.144 12.2519
      vertex 150 150 0
      vertex 46.7765 139.163 12.2311
    endloop
  endfacet
  facet normal -0.000643602 0.751164 0.660115
    outer loop
      vertex 46.7765 139.163 12.2311
      vertex 150 150 0
      vertex 46.6916 139.174 12.2185
    endloop
  endfacet
  facet normal 0.000434262 0.746644 0.665223
    outer loop
      vertex 46.6916 139.174 12.2185
      vertex 150 150 0
      vertex 46.3916 139.214 12.1738
    endloop
  endfacet
  facet normal -0 0.748482 0.663156
    outer loop
      vertex 0 150 0
      vertex 46.3916 139.214 12.1738
      vertex 150 150 0
    endloop
  endfacet
  facet normal -0.00087322 0.746827 0.665017
    outer loop
      vertex 46.3916 139.214 12.1738
      vertex 0 150 0
      vertex 46.0864 139.227 12.1588
    endloop
  endfacet
  facet normal 0.00127024 0.742753 0.669564
    outer loop
      vertex 14.42 132.159 20.1364
      vertex 46.3052 135.265 16.6304
      vertex 46 135.252 16.6454
    endloop
  endfacet
  facet normal -0.00444947 0.76825 0.640135
    outer loop
      vertex 14.42 132.159 20.1364
      vertex 46.3916 135.269 16.6262
      vertex 46.3052 135.265 16.6304
    endloop
  endfacet
  facet normal 0.000142117 0.752842 0.658201
    outer loop
      vertex 127 134.159 17.8784
      vertex 46.4765 135.28 16.6136
      vertex 46.3916 135.269 16.6262
    endloop
  endfacet
  facet normal 0.000147904 0.753024 0.657993
    outer loop
      vertex 127 134.159 17.8784
      vertex 46.7765 135.319 16.5689
      vertex 46.4765 135.28 16.6136
    endloop
  endfacet
  facet normal -0.000124565 0.744744 0.667351
    outer loop
      vertex 127 134.159 17.8784
      vertex 47.0661 135.385 16.4953
      vertex 46.7765 135.319 16.5689
    endloop
  endfacet
  facet normal 0.000257435 0.755667 0.654956
    outer loop
      vertex 127 134.159 17.8784
      vertex 47.148 135.403 16.4745
      vertex 47.0661 135.385 16.4953
    endloop
  endfacet
  facet normal 1.01352e-05 0.74873 0.662875
    outer loop
      vertex 127 134.159 17.8784
      vertex 47.5 135.518 16.3446
      vertex 47.148 135.403 16.4745
    endloop
  endfacet
  facet normal -3.96301e-05 0.747449 0.66432
    outer loop
      vertex 127 134.159 17.8784
      vertex 47.572 135.55 16.3086
      vertex 47.5 135.518 16.3446
    endloop
  endfacet
  facet normal -3.21907e-05 0.747636 0.664109
    outer loop
      vertex 127 134.159 17.8784
      vertex 47.8263 135.663 16.1814
      vertex 47.572 135.55 16.3086
    endloop
  endfacet
  facet normal -5.67491e-05 0.747066 0.66475
    outer loop
      vertex 127 134.159 17.8784
      vertex 47.8914 135.701 16.1387
      vertex 47.8263 135.663 16.1814
    endloop
  endfacet
  facet normal 8.88543e-05 0.750351 0.66104
    outer loop
      vertex 127 134.159 17.8784
      vertex 48.1213 135.834 15.9877
      vertex 47.8914 135.701 16.1387
    endloop
  endfacet
  facet normal -5.40662e-05 0.747393 0.664382
    outer loop
      vertex 127 134.159 17.8784
      vertex 48.323 135.987 15.8156
      vertex 48.1213 135.834 15.9877
    endloop
  endfacet
  facet normal 6.13425e-05 0.749578 0.661917
    outer loop
      vertex 127 134.159 17.8784
      vertex 48.3801 136.03 15.7669
      vertex 48.323 135.987 15.8156
    endloop
  endfacet
  facet normal -8.69351e-05 0.746836 0.665008
    outer loop
      vertex 127 134.159 17.8784
      vertex 48.4282 136.078 15.713
      vertex 48.3801 136.03 15.7669
    endloop
  endfacet
  facet normal 6.84306e-05 0.749635 0.661851
    outer loop
      vertex 127 134.159 17.8784
      vertex 48.5981 136.246 15.5227
      vertex 48.4282 136.078 15.713
    endloop
  endfacet
  facet normal -1.25957e-05 0.748298 0.663363
    outer loop
      vertex 127 134.159 17.8784
      vertex 48.7334 136.428 15.3174
      vertex 48.5981 136.246 15.5227
    endloop
  endfacet
  facet normal -0.000215472 0.745211 0.666829
    outer loop
      vertex 127 134.159 17.8784
      vertex 48.7716 136.48 15.2593
      vertex 48.7334 136.428 15.3174
    endloop
  endfacet
  facet normal 3.97294e-05 0.749003 0.662567
    outer loop
      vertex 127 134.159 17.8784
      vertex 48.8978 136.726 14.9812
      vertex 48.7716 136.48 15.2593
    endloop
  endfacet
  facet normal -0.000278991 0.744727 0.66737
    outer loop
      vertex 127 134.159 17.8784
      vertex 48.9147 136.783 14.9176
      vertex 48.8978 136.726 14.9812
    endloop
  endfacet
  facet normal 0.000120696 0.749968 0.661474
    outer loop
      vertex 127 134.159 17.8784
      vertex 48.9743 136.981 14.6931
      vertex 48.9147 136.783 14.9176
    endloop
  endfacet
  facet normal -8.65564e-05 0.747449 0.664319
    outer loop
      vertex 127 134.159 17.8784
      vertex 48.9943 137.184 14.4647
      vertex 48.9743 136.981 14.6931
    endloop
  endfacet
  facet normal 0.00016833 0.750338 0.661054
    outer loop
      vertex 127 134.159 17.8784
      vertex 49 137.241 14.4
      vertex 48.9943 137.184 14.4647
    endloop
  endfacet
  facet normal 3.90193e-07 0.748472 0.663167
    outer loop
      vertex 127 138.591 12.8763
      vertex 49 137.241 14.4
      vertex 127 134.159 17.8784
    endloop
  endfacet
  facet normal -7.33379e-05 0.750342 0.66105
    outer loop
      vertex 49 137.241 14.4
      vertex 127 138.591 12.8763
      vertex 48.9943 137.298 14.3353
    endloop
  endfacet
  facet normal 3.58443e-05 0.747447 0.664321
    outer loop
      vertex 48.9943 137.298 14.3353
      vertex 127 138.591 12.8763
      vertex 48.9743 137.501 14.1069
    endloop
  endfacet
  facet normal 7.84486e-06 0.748329 0.663328
    outer loop
      vertex 48.9743 137.501 14.1069
      vertex 127 138.591 12.8763
      vertex 48.9147 137.7 13.8824
    endloop
  endfacet
  facet normal -4.90986e-05 0.75052 0.660848
    outer loop
      vertex 48.9147 137.7 13.8824
      vertex 127 138.591 12.8763
      vertex 48.8978 137.756 13.8188
    endloop
  endfacet
  facet normal 1.99937e-05 0.747681 0.664058
    outer loop
      vertex 48.8978 137.756 13.8188
      vertex 127 138.591 12.8763
      vertex 48.7716 138.003 13.5407
    endloop
  endfacet
  facet normal -4.57773e-05 0.751519 0.659711
    outer loop
      vertex 48.7716 138.003 13.5407
      vertex 127 138.591 12.8763
      vertex 48.7334 138.054 13.4826
    endloop
  endfacet
  facet normal 4.65652e-06 0.748295 0.663366
    outer loop
      vertex 48.7334 138.054 13.4826
      vertex 127 138.591 12.8763
      vertex 48.5981 138.236 13.2773
    endloop
  endfacet
  facet normal -2.92086e-06 0.74903 0.662536
    outer loop
      vertex 48.5981 138.236 13.2773
      vertex 127 138.591 12.8763
      vertex 48.3801 138.452 13.0331
    endloop
  endfacet
  facet normal 3.77481e-06 0.747364 0.664415
    outer loop
      vertex 48.3801 138.452 13.0331
      vertex 127 138.591 12.8763
      vertex 48.1784 138.605 12.861
    endloop
  endfacet
  facet normal 0 -0.939693 0.34202
    outer loop
      vertex 0 0 0
      vertex 150 43.6764 120
      vertex 0 43.6764 120
    endloop
  endfacet
  facet normal 0 -0.939693 0.34202
    outer loop
      vertex 150 43.6764 120
      vertex 0 0 0
      vertex 150 0 0
    endloop
  endfacet
  facet normal 1 0 0
    outer loop
      vertex 3.2 142.889 3.2
      vertex 3.2 44.8453 113.855
      vertex 3.2 4.57007 3.2
    endloop
  endfacet
  facet normal -0 0 1
    outer loop
      vertex 3.2 142.889 3.2
      vertex 150 4.57007 3.2
      vertex 150 142.889 3.2
    endloop
  endfacet
  facet normal 0 0 1
    outer loop
      vertex 150 4.57007 3.2
      vertex 3.2 142.889 3.2
      vertex 3.2 4.57007 3.2
    endloop
  endfacet
  facet normal -0.00071484 -0.748315 -0.663344
    outer loop
      vertex 46.3513 132.872 14.506
      vertex 3.2 44.8453 113.855
      vertex 46 132.857 14.5233
    endloop
  endfacet
  facet normal 0.000685408 -0.748614 -0.663006
    outer loop
      vertex 3.2 44.8453 113.855
      vertex 45.6487 132.872 14.506
      vertex 46 132.857 14.5233
    endloop
  endfacet
  facet normal -0.00575321 -0.747235 -0.664535
    outer loop
      vertex 3.2 44.8453 113.855
      vertex 45.6084 132.874 14.5041
      vertex 45.6487 132.872 14.506
    endloop
  endfacet
  facet normal 0.00404964 -0.749319 -0.662197
    outer loop
      vertex 3.2 44.8453 113.855
      vertex 45.5688 132.879 14.4982
      vertex 45.6084 132.874 14.5041
    endloop
  endfacet
  facet normal 0.00110556 -0.748702 -0.662906
    outer loop
      vertex 3.2 44.8453 113.855
      vertex 45.2235 132.924 14.4468
      vertex 45.5688 132.879 14.4982
    endloop
  endfacet
  facet normal 9.48745e-05 -0.748491 -0.663145
    outer loop
      vertex 3.2 44.8453 113.855
      vertex 44.8902 132.999 14.3621
      vertex 45.2235 132.924 14.4468
    endloop
  endfacet
  facet normal -0.00716672 -0.746959 -0.664831
    outer loop
      vertex 3.2 44.8453 113.855
      vertex 44.852 133.008 14.3524
      vertex 44.8902 132.999 14.3621
    endloop
  endfacet
  facet normal 0.000339696 -0.74854 -0.66309
    outer loop
      vertex 3.2 44.8453 113.855
      vertex 44.5 133.123 14.2224
      vertex 44.852 133.008 14.3524
    endloop
  endfacet
  facet normal -0.00375042 -0.747693 -0.664034
    outer loop
      vertex 3.2 44.8453 113.855
      vertex 44.4664 133.138 14.2057
      vertex 44.5 133.123 14.2224
    endloop
  endfacet
  facet normal -0.00060273 -0.748345 -0.663309
    outer loop
      vertex 3.2 44.8453 113.855
      vertex 44.1737 133.268 14.0593
      vertex 44.4664 133.138 14.2057
    endloop
  endfacet
  facet normal 0.0140232 -0.751246 -0.659874
    outer loop
      vertex 3.2 44.8453 113.855
      vertex 44.1433 133.285 14.0393
      vertex 44.1737 133.268 14.0593
    endloop
  endfacet
  facet normal -0.000215263 -0.748427 -0.663217
    outer loop
      vertex 3.2 44.8453 113.855
      vertex 43.8787 133.439 13.8656
      vertex 44.1433 133.285 14.0393
    endloop
  endfacet
  facet normal 8.54127e-07 -0.748471 -0.663168
    outer loop
      vertex 3.2 142.889 3.2
      vertex 43.8787 133.439 13.8656
      vertex 3.2 44.8453 113.855
    endloop
  endfacet
  facet normal 0.000682623 -0.747178 -0.664623
    outer loop
      vertex 43.8787 133.439 13.8656
      vertex 3.2 142.889 3.2
      vertex 43.6466 133.615 13.6675
    endloop
  endfacet
  facet normal -0.0013758 -0.751121 -0.660163
    outer loop
      vertex 43.6466 133.615 13.6675
      vertex 3.2 142.889 3.2
      vertex 43.6199 133.635 13.6448
    endloop
  endfacet
  facet normal -0.00328523 -0.754758 -0.655995
    outer loop
      vertex 43.6199 133.635 13.6448
      vertex 3.2 142.889 3.2
      vertex 43.5975 133.657 13.6196
    endloop
  endfacet
  facet normal -4.45905e-05 -0.748559 -0.663068
    outer loop
      vertex 43.5975 133.657 13.6196
      vertex 3.2 142.889 3.2
      vertex 43.4019 133.851 13.4006
    endloop
  endfacet
  facet normal 0.000608915 -0.74728 -0.664509
    outer loop
      vertex 43.4019 133.851 13.4006
      vertex 3.2 142.889 3.2
      vertex 43.2462 134.061 13.1643
    endloop
  endfacet
  facet normal -0.000804807 -0.750099 -0.661325
    outer loop
      vertex 43.2462 134.061 13.1643
      vertex 3.2 142.889 3.2
      vertex 43.2284 134.085 13.1371
    endloop
  endfacet
  facet normal -0.00029316 -0.749078 -0.662482
    outer loop
      vertex 43.2284 134.085 13.1371
      vertex 3.2 142.889 3.2
      vertex 43.1022 134.331 12.859
    endloop
  endfacet
  facet normal -0.0014848 -0.751513 -0.659717
    outer loop
      vertex 43.1022 134.331 12.859
      vertex 3.2 142.889 3.2
      vertex 43.0943 134.357 12.8294
    endloop
  endfacet
  facet normal -3.01984e-05 -0.748531 -0.6631
    outer loop
      vertex 43.0943 134.357 12.8294
      vertex 3.2 142.889 3.2
      vertex 43.0257 134.586 12.5709
    endloop
  endfacet
  facet normal 4.09453e-05 -0.74838 -0.66327
    outer loop
      vertex 43.0257 134.586 12.5709
      vertex 3.2 142.889 3.2
      vertex 43.0026 134.819 12.308
    endloop
  endfacet
  facet normal 0.00190709 -0.744317 -0.667824
    outer loop
      vertex 43.0026 134.819 12.308
      vertex 3.2 142.889 3.2
      vertex 43 134.846 12.2779
    endloop
  endfacet
  facet normal 0.0013412 -0.745556 -0.666441
    outer loop
      vertex 43 134.846 12.2779
      vertex 3.2 142.889 3.2
      vertex 43.0026 134.873 12.2477
    endloop
  endfacet
  facet normal 4.9623e-05 -0.748384 -0.663265
    outer loop
      vertex 43.0026 134.873 12.2477
      vertex 3.2 142.889 3.2
      vertex 43.0257 135.106 11.9848
    endloop
  endfacet
  facet normal 4.06712e-05 -0.748405 -0.663242
    outer loop
      vertex 43.0257 135.106 11.9848
      vertex 3.2 142.889 3.2
      vertex 43.0943 135.335 11.7264
    endloop
  endfacet
  facet normal 0.676725 -0.0676725 0.733119
    outer loop
      vertex 43.6199 136.057 10.9109
      vertex 43.8787 136.253 10.6901
      vertex 43.852 136.233 10.7129
    endloop
  endfacet
  facet normal -0.250098 0.0181824 -0.96805
    outer loop
      vertex 44.852 136.684 10.2034
      vertex 45.2235 136.768 10.109
      vertex 45.1853 136.759 10.1187
    endloop
  endfacet
  facet normal -0.142146 -0.0384978 -0.989097
    outer loop
      vertex 45.2235 136.768 10.109
      vertex 45.6084 136.819 10.0517
      vertex 45.2632 136.773 10.1031
    endloop
  endfacet
  facet normal -0.0594053 0.28943 -0.955354
    outer loop
      vertex 45.6084 136.819 10.0517
      vertex 46 136.836 10.0325
      vertex 45.9597 136.834 10.0344
    endloop
  endfacet
  facet normal -1.39337e-05 -0.748558 -0.66307
    outer loop
      vertex 45.6084 136.819 10.0517
      vertex 3.2 142.889 3.2
      vertex 46 136.836 10.0325
    endloop
  endfacet
  facet normal 0.000239907 -0.747777 -0.663949
    outer loop
      vertex 45.2235 136.768 10.109
      vertex 3.2 142.889 3.2
      vertex 45.6084 136.819 10.0517
    endloop
  endfacet
  facet normal 0.00028991 -0.747626 -0.66412
    outer loop
      vertex 44.852 136.684 10.2034
      vertex 3.2 142.889 3.2
      vertex 45.2235 136.768 10.109
    endloop
  endfacet
  facet normal -6.06949e-05 -0.748662 -0.662952
    outer loop
      vertex 44.5 136.569 10.3333
      vertex 3.2 142.889 3.2
      vertex 44.852 136.684 10.2034
    endloop
  endfacet
  facet normal 0.000191346 -0.747937 -0.663769
    outer loop
      vertex 44.2073 136.439 10.4797
      vertex 3.2 142.889 3.2
      vertex 44.5 136.569 10.3333
    endloop
  endfacet
  facet normal 0.000668207 -0.746601 -0.665272
    outer loop
      vertex 44.1737 136.424 10.4965
      vertex 3.2 142.889 3.2
      vertex 44.2073 136.439 10.4797
    endloop
  endfacet
  facet normal -0.000291428 -0.749278 -0.662255
    outer loop
      vertex 43.8787 136.253 10.6901
      vertex 3.2 142.889 3.2
      vertex 44.1737 136.424 10.4965
    endloop
  endfacet
  facet normal 0.000193892 -0.74797 -0.663732
    outer loop
      vertex 43.6199 136.057 10.9109
      vertex 3.2 142.889 3.2
      vertex 43.8787 136.253 10.6901
    endloop
  endfacet
  facet normal -0.000227088 -0.749066 -0.662496
    outer loop
      vertex 43.4019 135.841 11.1552
      vertex 3.2 142.889 3.2
      vertex 43.6199 136.057 10.9109
    endloop
  endfacet
  facet normal 0.000358512 -0.747596 -0.664153
    outer loop
      vertex 43.2462 135.631 11.3915
      vertex 3.2 142.889 3.2
      vertex 43.4019 135.841 11.1552
    endloop
  endfacet
  facet normal -5.8256e-05 -0.748608 -0.663012
    outer loop
      vertex 43.2284 135.607 11.4186
      vertex 3.2 142.889 3.2
      vertex 43.2462 135.631 11.3915
    endloop
  endfacet
  facet normal -0.000206095 -0.748966 -0.662609
    outer loop
      vertex 43.1022 135.361 11.6967
      vertex 3.2 142.889 3.2
      vertex 43.2284 135.607 11.4186
    endloop
  endfacet
  facet normal -0.00160231 -0.752208 -0.658924
    outer loop
      vertex 43.0943 135.335 11.7264
      vertex 3.2 142.889 3.2
      vertex 43.1022 135.361 11.6967
    endloop
  endfacet
  facet normal 0.00601197 -0.74975 -0.661694
    outer loop
      vertex 46.3916 132.874 14.5041
      vertex 3.2 44.8453 113.855
      vertex 46.3513 132.872 14.506
    endloop
  endfacet
  facet normal -0.00459411 -0.747468 -0.664282
    outer loop
      vertex 46.4312 132.879 14.4982
      vertex 3.2 44.8453 113.855
      vertex 46.3916 132.874 14.5041
    endloop
  endfacet
  facet normal -0.00125632 -0.748197 -0.663476
    outer loop
      vertex 46.7765 132.924 14.4468
      vertex 3.2 44.8453 113.855
      vertex 46.4312 132.879 14.4982
    endloop
  endfacet
  facet normal -0.000118231 -0.748445 -0.663197
    outer loop
      vertex 47.1098 132.999 14.3621
      vertex 3.2 44.8453 113.855
      vertex 46.7765 132.924 14.4468
    endloop
  endfacet
  facet normal 0.0089712 -0.750403 -0.66092
    outer loop
      vertex 47.148 133.008 14.3524
      vertex 3.2 44.8453 113.855
      vertex 47.1098 132.999 14.3621
    endloop
  endfacet
  facet normal -0.000468551 -0.748367 -0.663285
    outer loop
      vertex 47.5 133.123 14.2224
      vertex 3.2 44.8453 113.855
      vertex 47.148 133.008 14.3524
    endloop
  endfacet
  facet normal 0 -0.74847 -0.663169
    outer loop
      vertex 3.2 44.8453 113.855
      vertex 47.5 133.123 14.2224
      vertex 150 44.8453 113.855
    endloop
  endfacet
  facet normal 0.00298979 -0.746938 -0.664887
    outer loop
      vertex 47.5336 133.138 14.2057
      vertex 150 44.8453 113.855
      vertex 47.5 133.123 14.2224
    endloop
  endfacet
  facet normal 0.000480387 -0.748224 -0.663446
    outer loop
      vertex 47.8263 133.268 14.0593
      vertex 150 44.8453 113.855
      vertex 47.5336 133.138 14.2057
    endloop
  endfacet
  facet normal -0.0106791 -0.753827 -0.656986
    outer loop
      vertex 47.8567 133.285 14.0393
      vertex 150 44.8453 113.855
      vertex 47.8263 133.268 14.0593
    endloop
  endfacet
  facet normal 0.000163427 -0.748388 -0.663261
    outer loop
      vertex 48.1213 133.439 13.8656
      vertex 150 44.8453 113.855
      vertex 47.8567 133.285 14.0393
    endloop
  endfacet
  facet normal 0.000822752 -0.748054 -0.663637
    outer loop
      vertex 48.3534 133.615 13.6675
      vertex 150 44.8453 113.855
      vertex 48.1213 133.439 13.8656
    endloop
  endfacet
  facet normal -0.0017028 -0.749325 -0.662201
    outer loop
      vertex 48.3801 133.635 13.6448
      vertex 150 44.8453 113.855
      vertex 48.3534 133.615 13.6675
    endloop
  endfacet
  facet normal -0.00513808 -0.75104 -0.660237
    outer loop
      vertex 48.4025 133.657 13.6196
      vertex 150 44.8453 113.855
      vertex 48.3801 133.635 13.6448
    endloop
  endfacet
  facet normal -7.32253e-05 -0.748507 -0.663127
    outer loop
      vertex 48.5981 133.851 13.4006
      vertex 150 44.8453 113.855
      vertex 48.4025 133.657 13.6196
    endloop
  endfacet
  facet normal -0.000215359 -0.747409 -0.664365
    outer loop
      vertex 150 142.889 3.2
      vertex 48.5981 133.851 13.4006
      vertex 48.7538 134.061 13.1643
    endloop
  endfacet
  facet normal 0.000284775 -0.74993 -0.661517
    outer loop
      vertex 150 142.889 3.2
      vertex 48.7538 134.061 13.1643
      vertex 48.7716 134.085 13.1371
    endloop
  endfacet
  facet normal 0.000107654 -0.749036 -0.662529
    outer loop
      vertex 150 142.889 3.2
      vertex 48.7716 134.085 13.1371
      vertex 48.8978 134.331 12.859
    endloop
  endfacet
  facet normal 0.0005624 -0.751392 -0.659856
    outer loop
      vertex 150 142.889 3.2
      vertex 48.8978 134.331 12.859
      vertex 48.9057 134.357 12.8294
    endloop
  endfacet
  facet normal 1.14429e-05 -0.748528 -0.663103
    outer loop
      vertex 150 142.889 3.2
      vertex 48.9057 134.357 12.8294
      vertex 48.9743 134.586 12.5709
    endloop
  endfacet
  facet normal -1.59374e-05 -0.748382 -0.663268
    outer loop
      vertex 150 142.889 3.2
      vertex 48.9743 134.586 12.5709
      vertex 48.9974 134.819 12.308
    endloop
  endfacet
  facet normal -0.000742518 -0.744368 -0.667769
    outer loop
      vertex 150 142.889 3.2
      vertex 48.9974 134.819 12.308
      vertex 49 134.846 12.2779
    endloop
  endfacet
  facet normal -0.00053473 -0.745522 -0.66648
    outer loop
      vertex 150 142.889 3.2
      vertex 49 134.846 12.2779
      vertex 48.9974 134.873 12.2477
    endloop
  endfacet
  facet normal -1.979e-05 -0.748383 -0.663267
    outer loop
      vertex 150 142.889 3.2
      vertex 48.9974 134.873 12.2477
      vertex 48.9743 135.106 11.9848
    endloop
  endfacet
  facet normal -1.6589e-05 -0.748401 -0.663246
    outer loop
      vertex 150 142.889 3.2
      vertex 48.9743 135.106 11.9848
      vertex 48.9057 135.335 11.7264
    endloop
  endfacet
  facet normal 0.000653702 -0.752333 -0.658782
    outer loop
      vertex 150 142.889 3.2
      vertex 48.9057 135.335 11.7264
      vertex 48.8978 135.361 11.6967
    endloop
  endfacet
  facet normal 8.5926e-05 -0.748993 -0.662578
    outer loop
      vertex 150 142.889 3.2
      vertex 48.8978 135.361 11.6967
      vertex 48.7716 135.607 11.4186
    endloop
  endfacet
  facet normal 2.48194e-05 -0.748619 -0.663
    outer loop
      vertex 150 142.889 3.2
      vertex 48.7716 135.607 11.4186
      vertex 48.7538 135.631 11.3915
    endloop
  endfacet
  facet normal -0.000152758 -0.747529 -0.664229
    outer loop
      vertex 150 142.889 3.2
      vertex 48.7538 135.631 11.3915
      vertex 48.5981 135.841 11.1552
    endloop
  endfacet
  facet normal 9.90061e-05 -0.749122 -0.662432
    outer loop
      vertex 150 142.889 3.2
      vertex 48.5981 135.841 11.1552
      vertex 48.3801 136.057 10.9109
    endloop
  endfacet
  facet normal -0.676725 -0.0676725 0.733119
    outer loop
      vertex 48.1213 136.253 10.6901
      vertex 48.3801 136.057 10.9109
      vertex 48.148 136.233 10.7129
    endloop
  endfacet
  facet normal -0.46957 -0.0657398 0.880444
    outer loop
      vertex 47.5 136.569 10.3333
      vertex 47.8263 136.424 10.4965
      vertex 47.7927 136.439 10.4797
    endloop
  endfacet
  facet normal 0.250098 0.0181824 -0.96805
    outer loop
      vertex 46.7765 136.768 10.109
      vertex 47.148 136.684 10.2034
      vertex 46.8147 136.759 10.1187
    endloop
  endfacet
  facet normal 0.142146 -0.0384978 -0.989097
    outer loop
      vertex 46.3916 136.819 10.0517
      vertex 46.7765 136.768 10.109
      vertex 46.7368 136.773 10.1031
    endloop
  endfacet
  facet normal 0.0594053 0.28943 -0.955354
    outer loop
      vertex 46 136.836 10.0325
      vertex 46.3916 136.819 10.0517
      vertex 46.0403 136.834 10.0344
    endloop
  endfacet
  facet normal 2.62821e-05 -0.748433 -0.663211
    outer loop
      vertex 3.2 142.889 3.2
      vertex 46.3916 136.819 10.0517
      vertex 46 136.836 10.0325
    endloop
  endfacet
  facet normal -0 -0.748515 -0.663118
    outer loop
      vertex 150 142.889 3.2
      vertex 46.3916 136.819 10.0517
      vertex 3.2 142.889 3.2
    endloop
  endfacet
  facet normal -3.11927e-07 -0.748471 -0.663168
    outer loop
      vertex 48.5981 133.851 13.4006
      vertex 150 142.889 3.2
      vertex 150 44.8453 113.855
    endloop
  endfacet
  facet normal -8.66515e-05 -0.747908 -0.663802
    outer loop
      vertex 48.1213 136.253 10.6901
      vertex 150 142.889 3.2
      vertex 48.3801 136.057 10.9109
    endloop
  endfacet
  facet normal 0.000134021 -0.749397 -0.66212
    outer loop
      vertex 47.8263 136.424 10.4965
      vertex 150 142.889 3.2
      vertex 48.1213 136.253 10.6901
    endloop
  endfacet
  facet normal -0.000113962 -0.747674 -0.664066
    outer loop
      vertex 47.5 136.569 10.3333
      vertex 150 142.889 3.2
      vertex 47.8263 136.424 10.4965
    endloop
  endfacet
  facet normal 3.0207e-05 -0.748703 -0.662906
    outer loop
      vertex 47.148 136.684 10.2034
      vertex 150 142.889 3.2
      vertex 47.5 136.569 10.3333
    endloop
  endfacet
  facet normal -0.000153807 -0.74736 -0.664419
    outer loop
      vertex 46.7765 136.768 10.109
      vertex 150 142.889 3.2
      vertex 47.148 136.684 10.2034
    endloop
  endfacet
  facet normal -0.000141723 -0.74745 -0.664318
    outer loop
      vertex 46.3916 136.819 10.0517
      vertex 150 142.889 3.2
      vertex 46.7765 136.768 10.109
    endloop
  endfacet
  facet normal 0 0.939692 -0.342021
    outer loop
      vertex 150 4.57007 3.2
      vertex 3.2 44.8453 113.855
      vertex 150 44.8453 113.855
    endloop
  endfacet
  facet normal 0 0.939692 -0.342021
    outer loop
      vertex 3.2 44.8453 113.855
      vertex 150 4.57007 3.2
      vertex 3.2 4.57007 3.2
    endloop
  endfacet
  facet normal 0 0 -1
    outer loop
      vertex 4.2 4.2 3
      vertex 150 145.8 3
      vertex 150 4.2 3
    endloop
  endfacet
  facet normal -0 0 -1
    outer loop
      vertex 150 145.8 3
      vertex 4.2 4.2 3
      vertex 4.2 145.8 3
    endloop
  endfacet
  facet normal 1 -0 0
    outer loop
      vertex 4.2 4.2 3
      vertex 4.2 145.8 0
      vertex 4.2 145.8 3
    endloop
  endfacet
  facet normal 1 0 0
    outer loop
      vertex 4.2 145.8 0
      vertex 4.2 4.2 3
      vertex 4.2 4.2 0
    endloop
  endfacet
  facet normal 0 -1 0
    outer loop
      vertex 4.2 145.8 0
      vertex 150 145.8 3
      vertex 4.2 145.8 3
    endloop
  endfacet
  facet normal 0 -1 -0
    outer loop
      vertex 150 145.8 3
      vertex 4.2 145.8 0
      vertex 150 145.8 0
    endloop
  endfacet
  facet normal 0 1 -0
    outer loop
      vertex 150 4.2 0
      vertex 4.2 4.2 3
      vertex 150 4.2 3
    endloop
  endfacet
  facet normal 0 1 0
    outer loop
      vertex 4.2 4.2 3
      vertex 150 4.2 0
      vertex 4.2 4.2 0
    endloop
  endfacet
  facet normal 1 0 0
    outer loop
      vertex 150 61.5179 99.8636
      vertex 150 44.8453 113.855
      vertex 150 61.2185 99.5983
    endloop
  endfacet
  facet normal 1 0 0
    outer loop
      vertex 150 43.6764 120
      vertex 150 44.8453 113.855
      vertex 150 61.5179 99.8636
    endloop
  endfacet
  facet normal 1 0 0
    outer loop
      vertex 150 0 0
      vertex 150 44.8453 113.855
      vertex 150 43.6764 120
    endloop
  endfacet
  facet normal 1 0 0
    outer loop
      vertex 150 44.8453 113.855
      vertex 150 4.2 3
      vertex 150 4.57007 3.2
    endloop
  endfacet
  facet normal 1 0 0
    outer loop
      vertex 150 4.2 3
      vertex 150 0 0
      vertex 150 4.2 0
    endloop
  endfacet
  facet normal 1 0 0
    outer loop
      vertex 150 44.8453 113.855
      vertex 150 0 0
      vertex 150 4.2 3
    endloop
  endfacet
  facet normal 1 0 0
    outer loop
      vertex 150 138.591 12.8763
      vertex 150 145.8 3
      vertex 150 150 0
    endloop
  endfacet
  facet normal 1 0 0
    outer loop
      vertex 150 138.591 12.8763
      vertex 150 142.889 3.2
      vertex 150 145.8 3
    endloop
  endfacet
  facet normal 1 0 0
    outer loop
      vertex 150 134.159 17.8784
      vertex 150 142.889 3.2
      vertex 150 138.591 12.8763
    endloop
  endfacet
  facet normal 1 -0 0
    outer loop
      vertex 150 131.859 19.8712
      vertex 150 134.159 17.8784
      vertex 150 132.159 20.1364
    endloop
  endfacet
  facet normal 1 0 0
    outer loop
      vertex 150 134.159 17.8784
      vertex 150 131.859 19.8712
      vertex 150 142.889 3.2
    endloop
  endfacet
  facet normal 1 0 0
    outer loop
      vertex 150 61.2185 99.5983
      vertex 150 142.889 3.2
      vertex 150 131.859 19.8712
    endloop
  endfacet
  facet normal 1 0 0
    outer loop
      vertex 150 142.889 3.2
      vertex 150 61.2185 99.5983
      vertex 150 44.8453 113.855
    endloop
  endfacet
  facet normal 1 0 0
    outer loop
      vertex 150 150 0
      vertex 150 145.8 3
      vertex 150 145.8 0
    endloop
  endfacet
  facet normal 1 0 0
    outer loop
      vertex 150 4.2 3
      vertex 150 142.889 3.2
      vertex 150 4.57007 3.2
    endloop
  endfacet
  facet normal 1 0 0
    outer loop
      vertex 150 142.889 3.2
      vertex 150 4.2 3
      vertex 150 145.8 3
    endloop
  endfacet
endsolid OpenSCAD_Model
