solid OpenSCAD_Model
  facet normal 1 -0 0
    outer loop
      vertex 141.28 -58.96 1.8
      vertex 141.28 58.96 -1.8
      vertex 141.28 58.96 1.8
    endloop
  endfacet
  facet normal 1 0 0
    outer loop
      vertex 141.28 58.96 -1.8
      vertex 141.28 -58.96 1.8
      vertex 141.28 -58.96 -1.8
    endloop
  endfacet
  facet normal 0 0 1
    outer loop
      vertex 141.28 58.96 1.8
      vertex 135.58 53.26 1.8
      vertex 141.28 -58.96 1.8
    endloop
  endfacet
  facet normal 0 0 1
    outer loop
      vertex 141.28 58.96 1.8
      vertex -135.58 53.26 1.8
      vertex 135.58 53.26 1.8
    endloop
  endfacet
  facet normal 0 0 1
    outer loop
      vertex -135.58 53.26 1.8
      vertex -141.28 58.96 1.8
      vertex -135.58 -53.26 1.8
    endloop
  endfacet
  facet normal -0 0 1
    outer loop
      vertex -141.28 58.96 1.8
      vertex -135.58 53.26 1.8
      vertex 141.28 58.96 1.8
    endloop
  endfacet
  facet normal -0 0 1
    outer loop
      vertex 135.58 -53.26 1.8
      vertex 141.28 -58.96 1.8
      vertex 135.58 53.26 1.8
    endloop
  endfacet
  facet normal -0 0 1
    outer loop
      vertex -135.58 -53.26 1.8
      vertex 141.28 -58.96 1.8
      vertex 135.58 -53.26 1.8
    endloop
  endfacet
  facet normal 0 0 1
    outer loop
      vertex -135.58 -53.26 1.8
      vertex -141.28 -58.96 1.8
      vertex 141.28 -58.96 1.8
    endloop
  endfacet
  facet normal 0 0 1
    outer loop
      vertex -141.28 -58.96 1.8
      vertex -135.58 -53.26 1.8
      vertex -141.28 58.96 1.8
    endloop
  endfacet
  facet normal 0 0 -1
    outer loop
      vertex 141.28 -58.96 -1.8
      vertex 125.88 -41.84 -1.8
      vertex 141.28 58.96 -1.8
    endloop
  endfacet
  facet normal 0 0 -1
    outer loop
      vertex 141.28 -58.96 -1.8
      vertex -125.88 -41.84 -1.8
      vertex 125.88 -41.84 -1.8
    endloop
  endfacet
  facet normal -0 0 -1
    outer loop
      vertex -125.88 -41.84 -1.8
      vertex -141.28 -58.96 -1.8
      vertex -125.88 41.84 -1.8
    endloop
  endfacet
  facet normal 0 0 -1
    outer loop
      vertex -141.28 -58.96 -1.8
      vertex -125.88 -41.84 -1.8
      vertex 141.28 -58.96 -1.8
    endloop
  endfacet
  facet normal 0 0 -1
    outer loop
      vertex 125.88 41.84 -1.8
      vertex 141.28 58.96 -1.8
      vertex 125.88 -41.84 -1.8
    endloop
  endfacet
  facet normal 0 0 -1
    outer loop
      vertex -125.88 41.84 -1.8
      vertex 141.28 58.96 -1.8
      vertex 125.88 41.84 -1.8
    endloop
  endfacet
  facet normal 0 0 -1
    outer loop
      vertex -125.88 41.84 -1.8
      vertex -141.28 58.96 -1.8
      vertex 141.28 58.96 -1.8
    endloop
  endfacet
  facet normal 0 0 -1
    outer loop
      vertex -141.28 58.96 -1.8
      vertex -125.88 41.84 -1.8
      vertex -141.28 -58.96 -1.8
    endloop
  endfacet
  facet normal -1 0 0
    outer loop
      vertex -141.28 -58.96 -1.8
      vertex -141.28 58.96 1.8
      vertex -141.28 58.96 -1.8
    endloop
  endfacet
  facet normal -1 -0 0
    outer loop
      vertex -141.28 58.96 1.8
      vertex -141.28 -58.96 -1.8
      vertex -141.28 -58.96 1.8
    endloop
  endfacet
  facet normal 0 1 -0
    outer loop
      vertex 141.28 58.96 -1.8
      vertex -141.28 58.96 1.8
      vertex 141.28 58.96 1.8
    endloop
  endfacet
  facet normal 0 1 0
    outer loop
      vertex -141.28 58.96 1.8
      vertex 141.28 58.96 -1.8
      vertex -141.28 58.96 -1.8
    endloop
  endfacet
  facet normal 0 -1 0
    outer loop
      vertex -141.28 -58.96 -1.8
      vertex 141.28 -58.96 1.8
      vertex -141.28 -58.96 1.8
    endloop
  endfacet
  facet normal 0 -1 -0
    outer loop
      vertex 141.28 -58.96 1.8
      vertex -141.28 -58.96 -1.8
      vertex 141.28 -58.96 -1.8
    endloop
  endfacet
  facet normal -1 0 0
    outer loop
      vertex 125.88 -41.84 -1.8
      vertex 125.88 41.84 0.2
      vertex 125.88 41.84 -1.8
    endloop
  endfacet
  facet normal -1 -0 0
    outer loop
      vertex 125.88 41.84 0.2
      vertex 125.88 -41.84 -1.8
      vertex 125.88 -41.84 0.2
    endloop
  endfacet
  facet normal 1 -0 0
    outer loop
      vertex -125.88 -41.84 0.2
      vertex -125.88 41.84 -1.8
      vertex -125.88 41.84 0.2
    endloop
  endfacet
  facet normal 1 0 0
    outer loop
      vertex -125.88 41.84 -1.8
      vertex -125.88 -41.84 0.2
      vertex -125.88 -41.84 -1.8
    endloop
  endfacet
  facet normal 0 -1 0
    outer loop
      vertex -125.88 41.84 -1.8
      vertex 125.88 41.84 0.2
      vertex -125.88 41.84 0.2
    endloop
  endfacet
  facet normal 0 -1 -0
    outer loop
      vertex 125.88 41.84 0.2
      vertex -125.88 41.84 -1.8
      vertex 125.88 41.84 -1.8
    endloop
  endfacet
  facet normal 0 1 -0
    outer loop
      vertex 125.88 -41.84 -1.8
      vertex -125.88 -41.84 0.2
      vertex 125.88 -41.84 0.2
    endloop
  endfacet
  facet normal 0 1 0
    outer loop
      vertex -125.88 -41.84 0.2
      vertex 125.88 -41.84 -1.8
      vertex -125.88 -41.84 -1.8
    endloop
  endfacet
  facet normal -1 0 0
    outer loop
      vertex 135.58 -53.26 0.2
      vertex 135.58 53.26 1.8
      vertex 135.58 53.26 0.2
    endloop
  endfacet
  facet normal -1 -0 0
    outer loop
      vertex 135.58 53.26 1.8
      vertex 135.58 -53.26 0.2
      vertex 135.58 -53.26 1.8
    endloop
  endfacet
  facet normal 0 0 1
    outer loop
      vertex 135.58 53.26 0.2
      vertex 125.88 41.84 0.2
      vertex 135.58 -53.26 0.2
    endloop
  endfacet
  facet normal 0 0 1
    outer loop
      vertex 135.58 53.26 0.2
      vertex -125.88 41.84 0.2
      vertex 125.88 41.84 0.2
    endloop
  endfacet
  facet normal 0 0 1
    outer loop
      vertex -125.88 41.84 0.2
      vertex -135.58 53.26 0.2
      vertex -125.88 -41.84 0.2
    endloop
  endfacet
  facet normal -0 0 1
    outer loop
      vertex -135.58 53.26 0.2
      vertex -125.88 41.84 0.2
      vertex 135.58 53.26 0.2
    endloop
  endfacet
  facet normal -0 0 1
    outer loop
      vertex 125.88 -41.84 0.2
      vertex 135.58 -53.26 0.2
      vertex 125.88 41.84 0.2
    endloop
  endfacet
  facet normal -0 0 1
    outer loop
      vertex -125.88 -41.84 0.2
      vertex 135.58 -53.26 0.2
      vertex 125.88 -41.84 0.2
    endloop
  endfacet
  facet normal 0 0 1
    outer loop
      vertex -125.88 -41.84 0.2
      vertex -135.58 -53.26 0.2
      vertex 135.58 -53.26 0.2
    endloop
  endfacet
  facet normal 0 0 1
    outer loop
      vertex -135.58 -53.26 0.2
      vertex -125.88 -41.84 0.2
      vertex -135.58 53.26 0.2
    endloop
  endfacet
  facet normal 1 -0 0
    outer loop
      vertex -135.58 -53.26 1.8
      vertex -135.58 53.26 0.2
      vertex -135.58 53.26 1.8
    endloop
  endfacet
  facet normal 1 0 0
    outer loop
      vertex -135.58 53.26 0.2
      vertex -135.58 -53.26 1.8
      vertex -135.58 -53.26 0.2
    endloop
  endfacet
  facet normal 0 -1 0
    outer loop
      vertex -135.58 53.26 0.2
      vertex 135.58 53.26 1.8
      vertex -135.58 53.26 1.8
    endloop
  endfacet
  facet normal 0 -1 -0
    outer loop
      vertex 135.58 53.26 1.8
      vertex -135.58 53.26 0.2
      vertex 135.58 53.26 0.2
    endloop
  endfacet
  facet normal 0 1 -0
    outer loop
      vertex 135.58 -53.26 0.2
      vertex -135.58 -53.26 1.8
      vertex 135.58 -53.26 1.8
    endloop
  endfacet
  facet normal 0 1 0
    outer loop
      vertex -135.58 -53.26 1.8
      vertex 135.58 -53.26 0.2
      vertex -135.58 -53.26 0.2
    endloop
  endfacet
endsolid OpenSCAD_Model
